<svg width="510" height="844" viewBox="91 52 510 844" fill="none" xmlns="http://www.w3.org/2000/svg">
<rect x="334.93" y="84.0918" width="277.194" height="600.216" rx="35" transform="rotate(18.6953 334.93 84.0918)" fill="white"/>
<g filter="url(#filter0_f_1101_11711)">
<rect x="425.188" y="216.658" width="64.409" height="498.267" transform="rotate(7.61832 425.188 216.658)" fill="#473C5C" fill-opacity="0.17"/>
<rect x="425.188" y="216.658" width="64.409" height="498.267" transform="rotate(7.61832 425.188 216.658)" fill="#473C5C" fill-opacity="0.17"/>
</g>
<rect x="204.797" y="67.5" width="277.194" height="600.216" rx="35" transform="rotate(7.10602 204.797 67.5)" fill="white"/>
<g filter="url(#filter1_f_1101_11711)">
<rect x="171.344" y="171.412" width="248.533" height="511.506" fill="#4E465F" fill-opacity="0.17"/>
</g>
<rect x="91" y="52" width="277.194" height="600.216" rx="35" fill="white"/>
<path d="M173.828 385L173.288 383.22H167.908L167.368 385H164.868L169.588 371H171.608L176.328 385H173.828ZM168.508 381.16H172.668L170.588 374.22L168.508 381.16ZM196.799 378C196.799 379.613 196.379 381.053 195.539 382.32C194.712 383.573 193.566 384.447 192.099 384.94L193.599 386.92L191.579 387.94L189.599 385.34H189.559C187.359 385.34 185.599 384.633 184.279 383.22C182.972 381.807 182.319 380.067 182.319 378C182.319 375.933 182.972 374.193 184.279 372.78C185.599 371.367 187.359 370.66 189.559 370.66C191.759 370.66 193.512 371.367 194.819 372.78C196.139 374.193 196.799 375.933 196.799 378ZM185.999 381.78C186.866 382.78 188.052 383.28 189.559 383.28C191.066 383.28 192.246 382.78 193.099 381.78C193.966 380.767 194.392 379.507 194.379 378C194.392 376.493 193.966 375.24 193.099 374.24C192.246 373.227 191.066 372.72 189.559 372.72C188.052 372.72 186.866 373.227 185.999 374.24C185.146 375.24 184.726 376.493 184.739 378C184.726 379.507 185.146 380.767 185.999 381.78ZM208.958 375.9C208.958 376.98 208.685 377.927 208.138 378.74C207.605 379.553 206.885 380.133 205.978 380.48L208.738 385H206.118L203.558 380.8H201.298V385H198.998V371H204.158C205.558 371 206.705 371.46 207.598 372.38C208.505 373.3 208.958 374.473 208.958 375.9ZM201.298 373.06V378.74H204.018C204.778 378.74 205.405 378.473 205.898 377.94C206.405 377.393 206.658 376.713 206.658 375.9C206.658 375.087 206.405 374.413 205.898 373.88C205.405 373.333 204.778 373.06 204.018 373.06H201.298ZM222.646 385.34C220.406 385.34 218.633 384.66 217.326 383.3C216.019 381.94 215.366 380.173 215.366 378C215.366 375.827 216.019 374.06 217.326 372.7C218.633 371.34 220.406 370.66 222.646 370.66C224.526 370.66 226.073 371.14 227.286 372.1C228.499 373.047 229.213 374.28 229.426 375.8H226.906C226.679 374.84 226.199 374.087 225.466 373.54C224.746 372.993 223.813 372.72 222.666 372.72C221.133 372.72 219.933 373.2 219.066 374.16C218.213 375.107 217.786 376.387 217.786 378C217.786 379.613 218.213 380.9 219.066 381.86C219.933 382.807 221.133 383.28 222.666 383.28C223.813 383.28 224.746 383.007 225.466 382.46C226.199 381.913 226.679 381.16 226.906 380.2H229.426C229.213 381.72 228.499 382.96 227.286 383.92C226.073 384.867 224.526 385.34 222.646 385.34ZM239.237 383.86C238.357 384.78 237.164 385.24 235.657 385.24C234.15 385.24 232.95 384.78 232.057 383.86C231.177 382.927 230.737 381.753 230.737 380.34C230.737 378.927 231.177 377.76 232.057 376.84C232.95 375.907 234.15 375.44 235.657 375.44C237.164 375.44 238.357 375.907 239.237 376.84C240.13 377.76 240.577 378.927 240.577 380.34C240.577 381.753 240.13 382.927 239.237 383.86ZM233.637 382.48C234.13 383.027 234.804 383.3 235.657 383.3C236.51 383.3 237.177 383.027 237.657 382.48C238.15 381.933 238.397 381.22 238.397 380.34C238.397 379.46 238.15 378.747 237.657 378.2C237.177 377.653 236.51 377.38 235.657 377.38C234.804 377.38 234.13 377.653 233.637 378.2C233.157 378.747 232.917 379.46 232.917 380.34C232.917 381.22 233.157 381.933 233.637 382.48ZM249.723 371H251.903V385H249.723V383.74C249.456 384.193 249.036 384.56 248.463 384.84C247.903 385.107 247.33 385.24 246.743 385.24C245.29 385.24 244.163 384.78 243.363 383.86C242.563 382.94 242.163 381.767 242.163 380.34C242.163 378.927 242.583 377.76 243.423 376.84C244.263 375.907 245.39 375.44 246.803 375.44C247.43 375.44 248.003 375.573 248.523 375.84C249.043 376.107 249.443 376.473 249.723 376.94V371ZM247.063 383.3C247.956 383.3 248.636 383.02 249.103 382.46C249.583 381.9 249.823 381.193 249.823 380.34C249.823 379.487 249.583 378.78 249.103 378.22C248.636 377.66 247.956 377.38 247.063 377.38C246.223 377.38 245.556 377.66 245.063 378.22C244.583 378.767 244.343 379.473 244.343 380.34C244.343 381.207 244.583 381.92 245.063 382.48C245.556 383.027 246.223 383.3 247.063 383.3ZM263.139 379.86C263.139 380.1 263.119 380.5 263.079 381.06H256.159C256.185 381.793 256.425 382.36 256.879 382.76C257.332 383.147 257.959 383.34 258.759 383.34C259.785 383.34 260.479 382.987 260.839 382.28H263.039C262.892 383.147 262.419 383.86 261.619 384.42C260.832 384.967 259.879 385.24 258.759 385.24C257.292 385.24 256.132 384.8 255.279 383.92C254.425 383.04 253.999 381.847 253.999 380.34C253.999 378.847 254.419 377.66 255.259 376.78C256.112 375.887 257.252 375.44 258.679 375.44C260.012 375.44 261.085 375.853 261.899 376.68C262.725 377.493 263.139 378.553 263.139 379.86ZM256.159 379.4H260.999C260.985 378.68 260.772 378.127 260.359 377.74C259.959 377.353 259.385 377.16 258.639 377.16C257.879 377.16 257.279 377.367 256.839 377.78C256.399 378.193 256.172 378.733 256.159 379.4ZM274.906 372.82C274.706 372.82 274.526 372.833 274.366 372.86C274.219 372.887 274.052 372.947 273.866 373.04C273.692 373.12 273.559 373.267 273.466 373.48C273.372 373.693 273.326 373.96 273.326 374.28V375.68H275.766V377.5H273.326V385H271.146V377.5H269.246V375.68H271.146V374.32C271.146 373.613 271.259 373.02 271.486 372.54C271.712 372.047 272.006 371.693 272.366 371.48C272.739 371.253 273.079 371.1 273.386 371.02C273.692 370.927 273.999 370.88 274.306 370.88C274.919 370.88 275.406 370.94 275.766 371.06V372.9C275.699 372.9 275.566 372.887 275.366 372.86C275.179 372.833 275.026 372.82 274.906 372.82ZM285.077 383.86C284.197 384.78 283.004 385.24 281.497 385.24C279.99 385.24 278.79 384.78 277.897 383.86C277.017 382.927 276.577 381.753 276.577 380.34C276.577 378.927 277.017 377.76 277.897 376.84C278.79 375.907 279.99 375.44 281.497 375.44C283.004 375.44 284.197 375.907 285.077 376.84C285.97 377.76 286.417 378.927 286.417 380.34C286.417 381.753 285.97 382.927 285.077 383.86ZM279.477 382.48C279.97 383.027 280.644 383.3 281.497 383.3C282.35 383.3 283.017 383.027 283.497 382.48C283.99 381.933 284.237 381.22 284.237 380.34C284.237 379.46 283.99 378.747 283.497 378.2C283.017 377.653 282.35 377.38 281.497 377.38C280.644 377.38 279.97 377.653 279.477 378.2C278.997 378.747 278.757 379.46 278.757 380.34C278.757 381.22 278.997 381.933 279.477 382.48ZM288.507 385V375.68H290.687V377.48C290.847 376.853 291.161 376.38 291.627 376.06C292.094 375.727 292.607 375.56 293.167 375.56C293.527 375.56 293.814 375.587 294.027 375.64V377.64C293.801 377.613 293.514 377.6 293.167 377.6C292.394 377.6 291.787 377.887 291.347 378.46C290.907 379.02 290.687 379.827 290.687 380.88V385H288.507ZM180.512 415V401H188.592V403.06H182.812V407.02H188.592V409.08H182.812V412.94H188.592V415H180.512ZM193.931 415L189.891 405.68H192.231L194.811 412.08L197.391 405.68H199.731L195.691 415H193.931ZM209.145 409.86C209.145 410.1 209.125 410.5 209.085 411.06H202.165C202.191 411.793 202.431 412.36 202.885 412.76C203.338 413.147 203.965 413.34 204.765 413.34C205.791 413.34 206.485 412.987 206.845 412.28H209.045C208.898 413.147 208.425 413.86 207.625 414.42C206.838 414.967 205.885 415.24 204.765 415.24C203.298 415.24 202.138 414.8 201.285 413.92C200.431 413.04 200.005 411.847 200.005 410.34C200.005 408.847 200.425 407.66 201.265 406.78C202.118 405.887 203.258 405.44 204.685 405.44C206.018 405.44 207.091 405.853 207.905 406.68C208.731 407.493 209.145 408.553 209.145 409.86ZM202.165 409.4H207.005C206.991 408.68 206.778 408.127 206.365 407.74C205.965 407.353 205.391 407.16 204.645 407.16C203.885 407.16 203.285 407.367 202.845 407.78C202.405 408.193 202.178 408.733 202.165 409.4ZM211.252 415V405.68H213.432V407.48C213.592 406.853 213.905 406.38 214.372 406.06C214.838 405.727 215.352 405.56 215.912 405.56C216.272 405.56 216.558 405.587 216.772 405.64V407.64C216.545 407.613 216.258 407.6 215.912 407.6C215.138 407.6 214.532 407.887 214.092 408.46C213.652 409.02 213.432 409.827 213.432 410.88V415H211.252ZM224.916 405.68H227.096V415.04C227.096 416.467 226.689 417.573 225.876 418.36C225.089 419.08 224.036 419.44 222.716 419.44C221.342 419.44 220.276 419.12 219.516 418.48C218.849 417.893 218.502 417.087 218.476 416.06H220.676C220.729 416.593 220.902 416.987 221.196 417.24C221.502 417.507 221.996 417.64 222.676 417.64C223.369 417.64 223.916 417.413 224.316 416.96C224.716 416.52 224.916 415.827 224.916 414.88V413.7C224.316 414.727 223.316 415.24 221.916 415.24C220.809 415.24 219.956 414.887 219.356 414.18C218.769 413.46 218.476 412.52 218.476 411.36V405.68H220.656V410.9C220.656 412.513 221.329 413.32 222.676 413.32C223.409 413.32 223.962 413.06 224.336 412.54C224.722 412.02 224.916 411.34 224.916 410.5V405.68ZM235.004 415V401H237.424L242.964 411.16V401H245.164V415H242.744L237.204 404.84V415H235.004ZM256.508 409.86C256.508 410.1 256.488 410.5 256.448 411.06H249.528C249.555 411.793 249.795 412.36 250.248 412.76C250.701 413.147 251.328 413.34 252.128 413.34C253.155 413.34 253.848 412.987 254.208 412.28H256.408C256.261 413.147 255.788 413.86 254.988 414.42C254.201 414.967 253.248 415.24 252.128 415.24C250.661 415.24 249.501 414.8 248.648 413.92C247.795 413.04 247.368 411.847 247.368 410.34C247.368 408.847 247.788 407.66 248.628 406.78C249.481 405.887 250.621 405.44 252.048 405.44C253.381 405.44 254.455 405.853 255.268 406.68C256.095 407.493 256.508 408.553 256.508 409.86ZM249.528 409.4H254.368C254.355 408.68 254.141 408.127 253.728 407.74C253.328 407.353 252.755 407.16 252.008 407.16C251.248 407.16 250.648 407.367 250.208 407.78C249.768 408.193 249.541 408.733 249.528 409.4ZM267.25 409.86C267.25 410.1 267.23 410.5 267.19 411.06H260.27C260.297 411.793 260.537 412.36 260.99 412.76C261.443 413.147 262.07 413.34 262.87 413.34C263.897 413.34 264.59 412.987 264.95 412.28H267.15C267.003 413.147 266.53 413.86 265.73 414.42C264.943 414.967 263.99 415.24 262.87 415.24C261.403 415.24 260.243 414.8 259.39 413.92C258.537 413.04 258.11 411.847 258.11 410.34C258.11 408.847 258.53 407.66 259.37 406.78C260.223 405.887 261.363 405.44 262.79 405.44C264.123 405.44 265.197 405.853 266.01 406.68C266.837 407.493 267.25 408.553 267.25 409.86ZM260.27 409.4H265.11C265.097 408.68 264.883 408.127 264.47 407.74C264.07 407.353 263.497 407.16 262.75 407.16C261.99 407.16 261.39 407.367 260.95 407.78C260.51 408.193 260.283 408.733 260.27 409.4ZM276.412 401H278.592V415H276.412V413.74C276.146 414.193 275.726 414.56 275.152 414.84C274.592 415.107 274.019 415.24 273.432 415.24C271.979 415.24 270.852 414.78 270.052 413.86C269.252 412.94 268.852 411.767 268.852 410.34C268.852 408.927 269.272 407.76 270.112 406.84C270.952 405.907 272.079 405.44 273.492 405.44C274.119 405.44 274.692 405.573 275.212 405.84C275.732 406.107 276.132 406.473 276.412 406.94V401ZM273.752 413.3C274.646 413.3 275.326 413.02 275.792 412.46C276.272 411.9 276.512 411.193 276.512 410.34C276.512 409.487 276.272 408.78 275.792 408.22C275.326 407.66 274.646 407.38 273.752 407.38C272.912 407.38 272.246 407.66 271.752 408.22C271.272 408.767 271.032 409.473 271.032 410.34C271.032 411.207 271.272 411.92 271.752 412.48C272.246 413.027 272.912 413.3 273.752 413.3Z" fill="#131D29"/>
<g filter="url(#filter2_b_1101_11711)">
<path d="M122 135.165C122 126.238 129.238 119 138.165 119H320.835C329.762 119 337 126.238 337 135.165V317.835C337 326.762 329.762 334 320.835 334H138.165C129.238 334 122 326.762 122 317.835V135.165Z" fill="url(#paint0_linear_1101_11711)"/>
</g>
<g filter="url(#filter3_b_1101_11711)">
<path fill-rule="evenodd" clip-rule="evenodd" d="M320.835 119.808H138.165C129.684 119.808 122.808 126.684 122.808 135.165V317.835C122.808 326.316 129.684 333.192 138.165 333.192H320.835C329.316 333.192 336.192 326.316 336.192 317.835V135.165C336.192 126.684 329.316 119.808 320.835 119.808ZM138.165 119C129.238 119 122 126.238 122 135.165V317.835C122 326.762 129.238 334 138.165 334H320.835C329.762 334 337 326.762 337 317.835V135.165C337 126.238 329.762 119 320.835 119H138.165Z" fill="url(#paint1_linear_1101_11711)" fill-opacity="0.24"/>
</g>
<path d="M164.432 133.547H142.547C139.233 133.547 136.547 136.233 136.547 139.547V161.432" stroke="url(#paint2_linear_1101_11711)" stroke-width="4" stroke-linecap="round"/>
<path d="M322.449 161.432L322.449 139.547C322.449 136.233 319.763 133.547 316.449 133.547L294.564 133.547" stroke="url(#paint3_linear_1101_11711)" stroke-width="4" stroke-linecap="round"/>
<path d="M294.564 319.451L316.449 319.451C319.763 319.451 322.449 316.765 322.449 313.451L322.449 291.566" stroke="url(#paint4_linear_1101_11711)" stroke-width="4" stroke-linecap="round"/>
<path d="M136.547 291.566L136.547 313.451C136.547 316.765 139.233 319.451 142.547 319.451L164.432 319.451" stroke="url(#paint5_linear_1101_11711)" stroke-width="4" stroke-linecap="round"/>
<path d="M193.072 146.355H188.215V151.212H193.072V146.355Z" fill="#23262F"/>
<path d="M197.931 146.355H193.074V151.212H197.931V146.355Z" fill="#23262F"/>
<path d="M207.642 146.355H202.785V151.212H207.642V146.355Z" fill="#23262F"/>
<path d="M212.493 146.355H207.637V151.212H212.493V146.355Z" fill="#23262F"/>
<path d="M217.349 146.355H212.492V151.212H217.349V146.355Z" fill="#23262F"/>
<path d="M227.064 146.355H222.207V151.212H227.064V146.355Z" fill="#23262F"/>
<path d="M241.634 146.355H236.777V151.212H241.634V146.355Z" fill="#23262F"/>
<path d="M265.923 146.355H261.066V151.212H265.923V146.355Z" fill="#23262F"/>
<path d="M202.779 151.217H197.922V156.074H202.779V151.217Z" fill="#23262F"/>
<path d="M207.642 151.217H202.785V156.074H207.642V151.217Z" fill="#23262F"/>
<path d="M212.493 151.217H207.637V156.074H212.493V151.217Z" fill="#23262F"/>
<path d="M217.349 151.217H212.492V156.074H217.349V151.217Z" fill="#23262F"/>
<path d="M222.212 151.217H217.355V156.074H222.212V151.217Z" fill="#23262F"/>
<path d="M241.634 151.217H236.777V156.074H241.634V151.217Z" fill="#23262F"/>
<path d="M246.497 151.217H241.641V156.074H246.497V151.217Z" fill="#23262F"/>
<path d="M197.931 156.072H193.074V160.929H197.931V156.072Z" fill="#23262F"/>
<path d="M212.493 156.072H207.637V160.929H212.493V156.072Z" fill="#23262F"/>
<path d="M222.212 156.072H217.355V160.929H222.212V156.072Z" fill="#23262F"/>
<path d="M227.064 156.072H222.207V160.929H227.064V156.072Z" fill="#23262F"/>
<path d="M231.927 156.072H227.07V160.929H231.927V156.072Z" fill="#23262F"/>
<path d="M236.783 156.072H231.926V160.929H236.783V156.072Z" fill="#23262F"/>
<path d="M241.634 156.072H236.777V160.929H241.634V156.072Z" fill="#23262F"/>
<path d="M246.497 156.072H241.641V160.929H246.497V156.072Z" fill="#23262F"/>
<path d="M256.212 156.072H251.355V160.929H256.212V156.072Z" fill="#23262F"/>
<path d="M265.923 156.072H261.066V160.929H265.923V156.072Z" fill="#23262F"/>
<path d="M193.072 160.934H188.215V165.79H193.072V160.934Z" fill="#23262F"/>
<path d="M197.931 160.934H193.074V165.79H197.931V160.934Z" fill="#23262F"/>
<path d="M202.779 160.934H197.922V165.79H202.779V160.934Z" fill="#23262F"/>
<path d="M207.642 160.934H202.785V165.79H207.642V160.934Z" fill="#23262F"/>
<path d="M212.493 160.934H207.637V165.79H212.493V160.934Z" fill="#23262F"/>
<path d="M231.927 160.934H227.07V165.79H231.927V160.934Z" fill="#23262F"/>
<path d="M236.783 160.934H231.926V165.79H236.783V160.934Z" fill="#23262F"/>
<path d="M256.212 160.934H251.355V165.79H256.212V160.934Z" fill="#23262F"/>
<path d="M261.068 160.934H256.211V165.79H261.068V160.934Z" fill="#23262F"/>
<path d="M193.072 165.787H188.215V170.644H193.072V165.787Z" fill="#23262F"/>
<path d="M197.931 165.787H193.074V170.644H197.931V165.787Z" fill="#23262F"/>
<path d="M202.779 165.787H197.922V170.644H202.779V165.787Z" fill="#23262F"/>
<path d="M207.642 165.787H202.785V170.644H207.642V165.787Z" fill="#23262F"/>
<path d="M231.927 165.787H227.07V170.644H231.927V165.787Z" fill="#23262F"/>
<path d="M236.783 165.787H231.926V170.644H236.783V165.787Z" fill="#23262F"/>
<path d="M246.497 165.787H241.641V170.644H246.497V165.787Z" fill="#23262F"/>
<path d="M256.212 165.787H251.355V170.644H256.212V165.787Z" fill="#23262F"/>
<path d="M261.068 165.787H256.211V170.644H261.068V165.787Z" fill="#23262F"/>
<path d="M193.072 170.648H188.215V175.505H193.072V170.648Z" fill="#23262F"/>
<path d="M197.931 170.648H193.074V175.505H197.931V170.648Z" fill="#23262F"/>
<path d="M202.779 170.648H197.922V175.505H202.779V170.648Z" fill="#23262F"/>
<path d="M207.642 170.648H202.785V175.505H207.642V170.648Z" fill="#23262F"/>
<path d="M227.064 170.648H222.207V175.505H227.064V170.648Z" fill="#23262F"/>
<path d="M236.783 170.648H231.926V175.505H236.783V170.648Z" fill="#23262F"/>
<path d="M251.353 170.648H246.496V175.505H251.353V170.648Z" fill="#23262F"/>
<path d="M256.212 170.648H251.355V175.505H256.212V170.648Z" fill="#23262F"/>
<path d="M261.068 170.648H256.211V175.505H261.068V170.648Z" fill="#23262F"/>
<path d="M265.923 170.648H261.066V175.505H265.923V170.648Z" fill="#23262F"/>
<path d="M270.775 170.648H265.918V175.505H270.775V170.648Z" fill="#23262F"/>
<path d="M193.072 175.504H188.215V180.361H193.072V175.504Z" fill="#23262F"/>
<path d="M202.779 175.504H197.922V180.361H202.779V175.504Z" fill="#23262F"/>
<path d="M212.493 175.504H207.637V180.361H212.493V175.504Z" fill="#23262F"/>
<path d="M222.212 175.498H217.355V180.355H222.212V175.498Z" fill="#23262F"/>
<path d="M231.927 175.504H227.07V180.361H231.927V175.504Z" fill="#23262F"/>
<path d="M241.634 175.504H236.777V180.361H241.634V175.504Z" fill="#23262F"/>
<path d="M251.353 175.504H246.496V180.361H251.353V175.504Z" fill="#23262F"/>
<path d="M261.068 175.504H256.211V180.361H261.068V175.504Z" fill="#23262F"/>
<path d="M270.775 175.504H265.918V180.361H270.775V175.504Z" fill="#23262F"/>
<path d="M193.072 180.355H188.215V185.212H193.072V180.355Z" fill="#23262F"/>
<path d="M207.642 180.357H202.785V185.214H207.642V180.357Z" fill="#23262F"/>
<path d="M212.493 180.355H207.637V185.212H212.493V180.355Z" fill="#23262F"/>
<path d="M222.212 180.357H217.355V185.214H222.212V180.357Z" fill="#23262F"/>
<path d="M236.783 180.357H231.926V185.214H236.783V180.357Z" fill="#23262F"/>
<path d="M241.634 180.357H236.777V185.214H241.634V180.357Z" fill="#23262F"/>
<path d="M246.497 180.357H241.641V185.214H246.497V180.357Z" fill="#23262F"/>
<path d="M251.353 180.357H246.496V185.214H251.353V180.357Z" fill="#23262F"/>
<path d="M256.212 180.355H251.355V185.212H256.212V180.355Z" fill="#23262F"/>
<path d="M270.775 180.357H265.918V185.214H270.775V180.357Z" fill="#23262F"/>
<path d="M154.212 185.219H149.355V190.076H154.212V185.219Z" fill="#23262F"/>
<path d="M173.646 185.219H168.789V190.076H173.646V185.219Z" fill="#23262F"/>
<path d="M183.353 185.219H178.496V190.076H183.353V185.219Z" fill="#23262F"/>
<path d="M188.216 185.219H183.359V190.076H188.216V185.219Z" fill="#23262F"/>
<path d="M193.072 185.219H188.215V190.076H193.072V185.219Z" fill="#23262F"/>
<path d="M202.779 185.219H197.922V190.076H202.779V185.219Z" fill="#23262F"/>
<path d="M212.493 185.219H207.637V190.076H212.493V185.219Z" fill="#23262F"/>
<path d="M227.064 185.219H222.207V190.076H227.064V185.219Z" fill="#23262F"/>
<path d="M236.783 185.219H231.926V190.076H236.783V185.219Z" fill="#23262F"/>
<path d="M251.353 185.219H246.496V190.076H251.353V185.219Z" fill="#23262F"/>
<path d="M256.212 185.219H251.355V190.076H256.212V185.219Z" fill="#23262F"/>
<path d="M261.068 185.219H256.211V190.076H261.068V185.219Z" fill="#23262F"/>
<path d="M265.923 185.219H261.066V190.076H265.923V185.219Z" fill="#23262F"/>
<path d="M275.638 185.219H270.781V190.076H275.638V185.219Z" fill="#23262F"/>
<path d="M280.493 185.219H275.637V190.076H280.493V185.219Z" fill="#23262F"/>
<path d="M285.353 185.219H280.496V190.076H285.353V185.219Z" fill="#23262F"/>
<path d="M290.208 185.219H285.352V190.076H290.208V185.219Z" fill="#23262F"/>
<path d="M295.064 185.219H290.207V190.076H295.064V185.219Z" fill="#23262F"/>
<path d="M309.634 185.219H304.777V190.076H309.634V185.219Z" fill="#23262F"/>
<path d="M154.212 190.074H149.355V194.931H154.212V190.074Z" fill="#23262F"/>
<path d="M159.083 190.074H154.227V194.931H159.083V190.074Z" fill="#23262F"/>
<path d="M178.501 190.074H173.645V194.931H178.501V190.074Z" fill="#23262F"/>
<path d="M188.216 190.074H183.359V194.931H188.216V190.074Z" fill="#23262F"/>
<path d="M197.931 190.074H193.074V194.931H197.931V190.074Z" fill="#23262F"/>
<path d="M202.779 190.074H197.922V194.931H202.779V190.074Z" fill="#23262F"/>
<path d="M207.642 190.074H202.785V194.931H207.642V190.074Z" fill="#23262F"/>
<path d="M227.064 190.074H222.207V194.931H227.064V190.074Z" fill="#23262F"/>
<path d="M231.927 190.074H227.07V194.931H231.927V190.074Z" fill="#23262F"/>
<path d="M236.783 190.074H231.926V194.931H236.783V190.074Z" fill="#23262F"/>
<path d="M241.634 190.074H236.777V194.931H241.634V190.074Z" fill="#23262F"/>
<path d="M256.212 190.074H251.355V194.931H256.212V190.074Z" fill="#23262F"/>
<path d="M261.068 190.074H256.211V194.931H261.068V190.074Z" fill="#23262F"/>
<path d="M265.923 190.074H261.066V194.931H265.923V190.074Z" fill="#23262F"/>
<path d="M275.638 190.074H270.781V194.931H275.638V190.074Z" fill="#23262F"/>
<path d="M295.072 190.074H290.215V194.931H295.072V190.074Z" fill="#23262F"/>
<path d="M299.923 190.074H295.066V194.931H299.923V190.074Z" fill="#23262F"/>
<path d="M304.779 190.074H299.922V194.931H304.779V190.074Z" fill="#23262F"/>
<path d="M159.083 194.926H154.227V199.783H159.083V194.926Z" fill="#23262F"/>
<path d="M163.931 194.926H159.074V199.783H163.931V194.926Z" fill="#23262F"/>
<path d="M178.501 194.926H173.645V199.783H178.501V194.926Z" fill="#23262F"/>
<path d="M183.353 194.926H178.496V199.783H183.353V194.926Z" fill="#23262F"/>
<path d="M188.224 194.926H183.367V199.783H188.224V194.926Z" fill="#23262F"/>
<path d="M193.072 194.926H188.215V199.783H193.072V194.926Z" fill="#23262F"/>
<path d="M202.779 194.926H197.922V199.783H202.779V194.926Z" fill="#23262F"/>
<path d="M217.349 194.926H212.492V199.783H217.349V194.926Z" fill="#23262F"/>
<path d="M222.212 194.926H217.355V199.783H222.212V194.926Z" fill="#23262F"/>
<path d="M227.064 194.926H222.207V199.783H227.064V194.926Z" fill="#23262F"/>
<path d="M241.634 194.926H236.777V199.783H241.634V194.926Z" fill="#23262F"/>
<path d="M265.923 194.926H261.066V199.783H265.923V194.926Z" fill="#23262F"/>
<path d="M275.638 194.926H270.781V199.783H275.638V194.926Z" fill="#23262F"/>
<path d="M295.072 194.926H290.215V199.783H295.072V194.926Z" fill="#23262F"/>
<path d="M304.779 194.926H299.922V199.783H304.779V194.926Z" fill="#23262F"/>
<path d="M154.212 199.787H149.355V204.644H154.212V199.787Z" fill="#23262F"/>
<path d="M163.931 199.787H159.074V204.644H163.931V199.787Z" fill="#23262F"/>
<path d="M173.646 199.787H168.789V204.644H173.646V199.787Z" fill="#23262F"/>
<path d="M188.216 199.787H183.359V204.644H188.216V199.787Z" fill="#23262F"/>
<path d="M202.779 199.787H197.922V204.644H202.779V199.787Z" fill="#23262F"/>
<path d="M212.493 199.787H207.637V204.644H212.493V199.787Z" fill="#23262F"/>
<path d="M217.349 199.787H212.492V204.644H217.349V199.787Z" fill="#23262F"/>
<path d="M231.927 199.787H227.07V204.644H231.927V199.787Z" fill="#23262F"/>
<path d="M246.497 199.787H241.641V204.644H246.497V199.787Z" fill="#23262F"/>
<path d="M251.353 199.787H246.496V204.644H251.353V199.787Z" fill="#23262F"/>
<path d="M261.068 199.787H256.211V204.644H261.068V199.787Z" fill="#23262F"/>
<path d="M270.775 199.787H265.918V204.644H270.775V199.787Z" fill="#23262F"/>
<path d="M280.493 199.787H275.637V204.644H280.493V199.787Z" fill="#23262F"/>
<path d="M304.779 199.787H299.922V204.644H304.779V199.787Z" fill="#23262F"/>
<path d="M309.634 199.787H304.777V204.644H309.634V199.787Z" fill="#23262F"/>
<path d="M163.931 204.641H159.074V209.497H163.931V204.641Z" fill="#23262F"/>
<path d="M183.353 204.641H178.496V209.497H183.353V204.641Z" fill="#23262F"/>
<path d="M193.072 204.641H188.215V209.497H193.072V204.641Z" fill="#23262F"/>
<path d="M197.931 204.641H193.074V209.497H197.931V204.641Z" fill="#23262F"/>
<path d="M212.493 204.641H207.637V209.497H212.493V204.641Z" fill="#23262F"/>
<path d="M217.349 204.641H212.492V209.497H217.349V204.641Z" fill="#23262F"/>
<path d="M231.927 204.641H227.07V209.497H231.927V204.641Z" fill="#23262F"/>
<path d="M261.068 204.641H256.211V209.497H261.068V204.641Z" fill="#23262F"/>
<path d="M265.923 204.641H261.066V209.497H265.923V204.641Z" fill="#23262F"/>
<path d="M270.775 204.641H265.918V209.497H270.775V204.641Z" fill="#23262F"/>
<path d="M280.493 204.641H275.637V209.497H280.493V204.641Z" fill="#23262F"/>
<path d="M290.208 204.641H285.352V209.497H290.208V204.641Z" fill="#23262F"/>
<path d="M295.064 204.641H290.207V209.497H295.064V204.641Z" fill="#23262F"/>
<path d="M309.634 204.641H304.777V209.497H309.634V204.641Z" fill="#23262F"/>
<path d="M154.212 209.502H149.355V214.359H154.212V209.502Z" fill="#23262F"/>
<path d="M163.931 209.502H159.074V214.359H163.931V209.502Z" fill="#23262F"/>
<path d="M173.646 209.502H168.789V214.359H173.646V209.502Z" fill="#23262F"/>
<path d="M178.501 209.502H173.645V214.359H178.501V209.502Z" fill="#23262F"/>
<path d="M188.224 209.502H183.367V214.359H188.224V209.502Z" fill="#23262F"/>
<path d="M202.779 209.502H197.922V214.359H202.779V209.502Z" fill="#23262F"/>
<path d="M207.642 209.502H202.785V214.359H207.642V209.502Z" fill="#23262F"/>
<path d="M212.493 209.502H207.637V214.359H212.493V209.502Z" fill="#23262F"/>
<path d="M222.212 209.502H217.355V214.359H222.212V209.502Z" fill="#23262F"/>
<path d="M236.783 209.502H231.926V214.359H236.783V209.502Z" fill="#23262F"/>
<path d="M241.634 209.502H236.777V214.359H241.634V209.502Z" fill="#23262F"/>
<path d="M246.497 209.502H241.641V214.359H246.497V209.502Z" fill="#23262F"/>
<path d="M251.353 209.502H246.496V214.359H251.353V209.502Z" fill="#23262F"/>
<path d="M270.775 209.502H265.918V214.359H270.775V209.502Z" fill="#23262F"/>
<path d="M280.493 209.502H275.637V214.359H280.493V209.502Z" fill="#23262F"/>
<path d="M285.353 209.502H280.496V214.359H285.353V209.502Z" fill="#23262F"/>
<path d="M299.923 209.502H295.066V214.359H299.923V209.502Z" fill="#23262F"/>
<path d="M163.931 214.354H159.074V219.21H163.931V214.354Z" fill="#23262F"/>
<path d="M168.783 214.354H163.926V219.21H168.783V214.354Z" fill="#23262F"/>
<path d="M173.646 214.354H168.789V219.21H173.646V214.354Z" fill="#23262F"/>
<path d="M178.501 214.354H173.645V219.21H178.501V214.354Z" fill="#23262F"/>
<path d="M183.353 214.354H178.496V219.21H183.353V214.354Z" fill="#23262F"/>
<path d="M202.779 214.354H197.922V219.21H202.779V214.354Z" fill="#23262F"/>
<path d="M207.642 214.354H202.785V219.21H207.642V214.354Z" fill="#23262F"/>
<path d="M222.212 214.357H217.355V219.214H222.212V214.357Z" fill="#23262F"/>
<path d="M227.064 214.354H222.207V219.21H227.064V214.354Z" fill="#23262F"/>
<path d="M236.783 214.354H231.926V219.21H236.783V214.354Z" fill="#23262F"/>
<path d="M241.634 214.354H236.777V219.21H241.634V214.354Z" fill="#23262F"/>
<path d="M251.353 214.354H246.496V219.21H251.353V214.354Z" fill="#23262F"/>
<path d="M256.212 214.354H251.355V219.21H256.212V214.354Z" fill="#23262F"/>
<path d="M265.923 214.354H261.066V219.21H265.923V214.354Z" fill="#23262F"/>
<path d="M270.775 214.354H265.918V219.21H270.775V214.354Z" fill="#23262F"/>
<path d="M275.638 214.354H270.781V219.21H275.638V214.354Z" fill="#23262F"/>
<path d="M280.493 214.354H275.637V219.21H280.493V214.354Z" fill="#23262F"/>
<path d="M290.208 214.354H285.352V219.21H290.208V214.354Z" fill="#23262F"/>
<path d="M295.064 214.354H290.207V219.21H295.064V214.354Z" fill="#23262F"/>
<path d="M299.915 214.354H295.059V219.21H299.915V214.354Z" fill="#23262F"/>
<path d="M304.779 214.354H299.922V219.21H304.779V214.354Z" fill="#23262F"/>
<path d="M154.212 219.211H149.355V224.068H154.212V219.211Z" fill="#23262F"/>
<path d="M159.083 219.211H154.227V224.068H159.083V219.211Z" fill="#23262F"/>
<path d="M173.646 219.207H168.789V224.064H173.646V219.207Z" fill="#23262F"/>
<path d="M188.216 219.211H183.359V224.068H188.216V219.211Z" fill="#23262F"/>
<path d="M193.072 219.211H188.215V224.068H193.072V219.211Z" fill="#23262F"/>
<path d="M202.779 219.211H197.922V224.068H202.779V219.211Z" fill="#23262F"/>
<path d="M217.349 219.211H212.492V224.068H217.349V219.211Z" fill="#23262F"/>
<path d="M222.212 219.211H217.355V224.068H222.212V219.211Z" fill="#23262F"/>
<path d="M227.064 219.207H222.207V224.064H227.064V219.207Z" fill="#23262F"/>
<path d="M231.927 219.207H227.07V224.064H231.927V219.207Z" fill="#23262F"/>
<path d="M236.783 219.207H231.926V224.064H236.783V219.207Z" fill="#23262F"/>
<path d="M241.634 219.207H236.777V224.064H241.634V219.207Z" fill="#23262F"/>
<path d="M256.212 219.211H251.355V224.068H256.212V219.211Z" fill="#23262F"/>
<path d="M265.923 219.211H261.066V224.068H265.923V219.211Z" fill="#23262F"/>
<path d="M275.638 219.211H270.781V224.068H275.638V219.211Z" fill="#23262F"/>
<path d="M280.493 219.211H275.637V224.068H280.493V219.211Z" fill="#23262F"/>
<path d="M290.208 219.207H285.352V224.064H290.208V219.207Z" fill="#23262F"/>
<path d="M154.212 224.068H149.355V228.925H154.212V224.068Z" fill="#23262F"/>
<path d="M159.083 224.068H154.227V228.925H159.083V224.068Z" fill="#23262F"/>
<path d="M168.783 224.068H163.926V228.925H168.783V224.068Z" fill="#23262F"/>
<path d="M173.646 224.068H168.789V228.925H173.646V224.068Z" fill="#23262F"/>
<path d="M178.501 224.068H173.645V228.925H178.501V224.068Z" fill="#23262F"/>
<path d="M183.353 224.068H178.496V228.925H183.353V224.068Z" fill="#23262F"/>
<path d="M193.072 224.068H188.215V228.925H193.072V224.068Z" fill="#23262F"/>
<path d="M197.931 224.068H193.074V228.925H197.931V224.068Z" fill="#23262F"/>
<path d="M207.642 224.068H202.785V228.925H207.642V224.068Z" fill="#23262F"/>
<path d="M212.493 224.068H207.637V228.925H212.493V224.068Z" fill="#23262F"/>
<path d="M236.783 224.068H231.926V228.925H236.783V224.068Z" fill="#23262F"/>
<path d="M241.634 224.068H236.777V228.925H241.634V224.068Z" fill="#23262F"/>
<path d="M246.497 224.068H241.641V228.925H246.497V224.068Z" fill="#23262F"/>
<path d="M251.353 224.068H246.496V228.925H251.353V224.068Z" fill="#23262F"/>
<path d="M256.212 224.068H251.355V228.925H256.212V224.068Z" fill="#23262F"/>
<path d="M261.068 224.068H256.211V228.925H261.068V224.068Z" fill="#23262F"/>
<path d="M270.775 224.068H265.918V228.925H270.775V224.068Z" fill="#23262F"/>
<path d="M280.493 224.068H275.637V228.925H280.493V224.068Z" fill="#23262F"/>
<path d="M290.208 224.068H285.352V228.925H290.208V224.068Z" fill="#23262F"/>
<path d="M295.064 224.068H290.207V228.925H295.064V224.068Z" fill="#23262F"/>
<path d="M304.779 224.068H299.922V228.925H304.779V224.068Z" fill="#23262F"/>
<path d="M159.083 228.924H154.227V233.781H159.083V228.924Z" fill="#23262F"/>
<path d="M173.646 228.924H168.789V233.781H173.646V228.924Z" fill="#23262F"/>
<path d="M178.501 228.928H173.645V233.784H178.501V228.928Z" fill="#23262F"/>
<path d="M188.216 228.924H183.359V233.781H188.216V228.924Z" fill="#23262F"/>
<path d="M193.072 228.924H188.215V233.781H193.072V228.924Z" fill="#23262F"/>
<path d="M197.931 228.924H193.074V233.781H197.931V228.924Z" fill="#23262F"/>
<path d="M202.779 228.928H197.922V233.784H202.779V228.928Z" fill="#23262F"/>
<path d="M227.064 228.928H222.207V233.784H227.064V228.928Z" fill="#23262F"/>
<path d="M231.927 228.924H227.07V233.781H231.927V228.924Z" fill="#23262F"/>
<path d="M241.634 228.924H236.777V233.781H241.634V228.924Z" fill="#23262F"/>
<path d="M251.353 228.928H246.496V233.784H251.353V228.928Z" fill="#23262F"/>
<path d="M261.068 228.928H256.211V233.784H261.068V228.928Z" fill="#23262F"/>
<path d="M265.923 228.928H261.066V233.784H265.923V228.928Z" fill="#23262F"/>
<path d="M270.775 228.924H265.918V233.781H270.775V228.924Z" fill="#23262F"/>
<path d="M295.064 228.924H290.207V233.781H295.064V228.924Z" fill="#23262F"/>
<path d="M299.923 228.928H295.066V233.784H299.923V228.928Z" fill="#23262F"/>
<path d="M304.779 228.924H299.922V233.781H304.779V228.924Z" fill="#23262F"/>
<path d="M309.634 228.924H304.777V233.781H309.634V228.924Z" fill="#23262F"/>
<path d="M159.083 233.781H154.227V238.638H159.083V233.781Z" fill="#23262F"/>
<path d="M163.931 233.781H159.074V238.638H163.931V233.781Z" fill="#23262F"/>
<path d="M168.783 233.781H163.926V238.638H168.783V233.781Z" fill="#23262F"/>
<path d="M173.646 233.781H168.789V238.638H173.646V233.781Z" fill="#23262F"/>
<path d="M178.501 233.781H173.645V238.638H178.501V233.781Z" fill="#23262F"/>
<path d="M183.353 233.781H178.496V238.638H183.353V233.781Z" fill="#23262F"/>
<path d="M188.216 233.781H183.359V238.638H188.216V233.781Z" fill="#23262F"/>
<path d="M212.493 233.781H207.637V238.638H212.493V233.781Z" fill="#23262F"/>
<path d="M217.349 233.781H212.492V238.638H217.349V233.781Z" fill="#23262F"/>
<path d="M227.064 233.781H222.207V238.638H227.064V233.781Z" fill="#23262F"/>
<path d="M231.927 233.781H227.07V238.638H231.927V233.781Z" fill="#23262F"/>
<path d="M236.783 233.781H231.926V238.638H236.783V233.781Z" fill="#23262F"/>
<path d="M251.353 233.781H246.496V238.638H251.353V233.781Z" fill="#23262F"/>
<path d="M256.212 233.781H251.355V238.638H256.212V233.781Z" fill="#23262F"/>
<path d="M261.068 233.781H256.211V238.638H261.068V233.781Z" fill="#23262F"/>
<path d="M265.923 233.781H261.066V238.638H265.923V233.781Z" fill="#23262F"/>
<path d="M270.775 233.781H265.918V238.638H270.775V233.781Z" fill="#23262F"/>
<path d="M280.493 233.781H275.637V238.638H280.493V233.781Z" fill="#23262F"/>
<path d="M285.353 233.781H280.496V238.638H285.353V233.781Z" fill="#23262F"/>
<path d="M295.064 233.781H290.207V238.638H295.064V233.781Z" fill="#23262F"/>
<path d="M304.779 233.781H299.922V238.638H304.779V233.781Z" fill="#23262F"/>
<path d="M159.083 238.639H154.227V243.495H159.083V238.639Z" fill="#23262F"/>
<path d="M163.931 238.639H159.074V243.495H163.931V238.639Z" fill="#23262F"/>
<path d="M188.224 238.639H183.367V243.495H188.224V238.639Z" fill="#23262F"/>
<path d="M212.493 238.639H207.637V243.495H212.493V238.639Z" fill="#23262F"/>
<path d="M222.212 238.639H217.355V243.495H222.212V238.639Z" fill="#23262F"/>
<path d="M227.064 238.639H222.207V243.495H227.064V238.639Z" fill="#23262F"/>
<path d="M236.783 238.639H231.926V243.495H236.783V238.639Z" fill="#23262F"/>
<path d="M241.634 238.639H236.777V243.495H241.634V238.639Z" fill="#23262F"/>
<path d="M251.353 238.639H246.496V243.495H251.353V238.639Z" fill="#23262F"/>
<path d="M256.212 238.639H251.355V243.495H256.212V238.639Z" fill="#23262F"/>
<path d="M270.775 238.639H265.918V243.495H270.775V238.639Z" fill="#23262F"/>
<path d="M280.493 238.639H275.637V243.495H280.493V238.639Z" fill="#23262F"/>
<path d="M285.353 238.639H280.496V243.495H285.353V238.639Z" fill="#23262F"/>
<path d="M304.779 238.639H299.922V243.495H304.779V238.639Z" fill="#23262F"/>
<path d="M154.212 243.494H149.355V248.351H154.212V243.494Z" fill="#23262F"/>
<path d="M163.931 243.494H159.074V248.351H163.931V243.494Z" fill="#23262F"/>
<path d="M173.646 243.494H168.789V248.351H173.646V243.494Z" fill="#23262F"/>
<path d="M178.501 243.494H173.645V248.351H178.501V243.494Z" fill="#23262F"/>
<path d="M183.353 243.494H178.496V248.351H183.353V243.494Z" fill="#23262F"/>
<path d="M188.224 243.494H183.367V248.351H188.224V243.494Z" fill="#23262F"/>
<path d="M193.072 243.494H188.215V248.351H193.072V243.494Z" fill="#23262F"/>
<path d="M202.779 243.494H197.922V248.351H202.779V243.494Z" fill="#23262F"/>
<path d="M207.642 243.494H202.785V248.351H207.642V243.494Z" fill="#23262F"/>
<path d="M212.493 243.494H207.637V248.351H212.493V243.494Z" fill="#23262F"/>
<path d="M217.349 243.494H212.492V248.351H217.349V243.494Z" fill="#23262F"/>
<path d="M241.634 243.494H236.777V248.351H241.634V243.494Z" fill="#23262F"/>
<path d="M246.497 243.494H241.641V248.351H246.497V243.494Z" fill="#23262F"/>
<path d="M251.353 243.494H246.496V248.351H251.353V243.494Z" fill="#23262F"/>
<path d="M280.493 243.494H275.637V248.351H280.493V243.494Z" fill="#23262F"/>
<path d="M295.064 243.494H290.207V248.351H295.064V243.494Z" fill="#23262F"/>
<path d="M154.212 248.355H149.355V253.212H154.212V248.355Z" fill="#23262F"/>
<path d="M163.931 248.355H159.074V253.212H163.931V248.355Z" fill="#23262F"/>
<path d="M193.072 248.355H188.215V253.212H193.072V248.355Z" fill="#23262F"/>
<path d="M202.779 248.355H197.922V253.212H202.779V248.355Z" fill="#23262F"/>
<path d="M212.493 248.355H207.637V253.212H212.493V248.355Z" fill="#23262F"/>
<path d="M222.212 248.355H217.355V253.212H222.212V248.355Z" fill="#23262F"/>
<path d="M231.927 248.355H227.07V253.212H231.927V248.355Z" fill="#23262F"/>
<path d="M236.783 248.355H231.926V253.212H236.783V248.355Z" fill="#23262F"/>
<path d="M246.497 248.355H241.641V253.212H246.497V248.355Z" fill="#23262F"/>
<path d="M261.068 248.355H256.211V253.212H261.068V248.355Z" fill="#23262F"/>
<path d="M280.493 248.355H275.637V253.212H280.493V248.355Z" fill="#23262F"/>
<path d="M285.353 248.355H280.496V253.212H285.353V248.355Z" fill="#23262F"/>
<path d="M299.923 248.355H295.066V253.212H299.923V248.355Z" fill="#23262F"/>
<path d="M304.779 248.355H299.922V253.212H304.779V248.355Z" fill="#23262F"/>
<path d="M173.646 253.209H168.789V258.066H173.646V253.209Z" fill="#23262F"/>
<path d="M178.501 253.209H173.645V258.066H178.501V253.209Z" fill="#23262F"/>
<path d="M183.353 253.209H178.496V258.066H183.353V253.209Z" fill="#23262F"/>
<path d="M188.216 253.209H183.359V258.066H188.216V253.209Z" fill="#23262F"/>
<path d="M193.072 253.209H188.215V258.066H193.072V253.209Z" fill="#23262F"/>
<path d="M212.493 253.209H207.637V258.066H212.493V253.209Z" fill="#23262F"/>
<path d="M222.212 253.209H217.355V258.066H222.212V253.209Z" fill="#23262F"/>
<path d="M231.927 253.209H227.07V258.066H231.927V253.209Z" fill="#23262F"/>
<path d="M241.634 253.209H236.777V258.066H241.634V253.209Z" fill="#23262F"/>
<path d="M246.497 253.209H241.641V258.066H246.497V253.209Z" fill="#23262F"/>
<path d="M256.212 253.209H251.355V258.066H256.212V253.209Z" fill="#23262F"/>
<path d="M265.923 253.209H261.066V258.066H265.923V253.209Z" fill="#23262F"/>
<path d="M275.638 253.209H270.781V258.066H275.638V253.209Z" fill="#23262F"/>
<path d="M290.208 253.209H285.352V258.066H290.208V253.209Z" fill="#23262F"/>
<path d="M295.072 253.209H290.215V258.066H295.072V253.209Z" fill="#23262F"/>
<path d="M299.923 253.209H295.066V258.066H299.923V253.209Z" fill="#23262F"/>
<path d="M304.779 253.209H299.922V258.066H304.779V253.209Z" fill="#23262F"/>
<path d="M173.646 258.061H168.789V262.917H173.646V258.061Z" fill="#23262F"/>
<path d="M178.501 258.061H173.645V262.917H178.501V258.061Z" fill="#23262F"/>
<path d="M188.216 258.061H183.359V262.917H188.216V258.061Z" fill="#23262F"/>
<path d="M193.072 258.061H188.215V262.917H193.072V258.061Z" fill="#23262F"/>
<path d="M202.779 258.061H197.922V262.917H202.779V258.061Z" fill="#23262F"/>
<path d="M207.642 258.061H202.785V262.917H207.642V258.061Z" fill="#23262F"/>
<path d="M217.349 258.061H212.492V262.917H217.349V258.061Z" fill="#23262F"/>
<path d="M236.783 258.061H231.926V262.917H236.783V258.061Z" fill="#23262F"/>
<path d="M241.634 258.061H236.777V262.917H241.634V258.061Z" fill="#23262F"/>
<path d="M246.497 258.061H241.641V262.917H246.497V258.061Z" fill="#23262F"/>
<path d="M251.353 258.061H246.496V262.917H251.353V258.061Z" fill="#23262F"/>
<path d="M256.212 258.061H251.355V262.917H256.212V258.061Z" fill="#23262F"/>
<path d="M261.068 258.061H256.211V262.917H261.068V258.061Z" fill="#23262F"/>
<path d="M265.923 258.061H261.066V262.917H265.923V258.061Z" fill="#23262F"/>
<path d="M270.775 258.061H265.918V262.917H270.775V258.061Z" fill="#23262F"/>
<path d="M275.638 258.061H270.781V262.917H275.638V258.061Z" fill="#23262F"/>
<path d="M280.493 258.061H275.637V262.917H280.493V258.061Z" fill="#23262F"/>
<path d="M304.779 258.061H299.922V262.917H304.779V258.061Z" fill="#23262F"/>
<path d="M309.634 258.061H304.777V262.917H309.634V258.061Z" fill="#23262F"/>
<path d="M154.212 262.922H149.355V267.779H154.212V262.922Z" fill="#23262F"/>
<path d="M159.083 262.922H154.227V267.779H159.083V262.922Z" fill="#23262F"/>
<path d="M163.931 262.922H159.074V267.779H163.931V262.922Z" fill="#23262F"/>
<path d="M173.646 262.922H168.789V267.779H173.646V262.922Z" fill="#23262F"/>
<path d="M183.353 262.922H178.496V267.779H183.353V262.922Z" fill="#23262F"/>
<path d="M188.216 262.922H183.359V267.779H188.216V262.922Z" fill="#23262F"/>
<path d="M202.779 262.922H197.922V267.779H202.779V262.922Z" fill="#23262F"/>
<path d="M207.642 262.922H202.785V267.779H207.642V262.922Z" fill="#23262F"/>
<path d="M217.349 262.922H212.492V267.779H217.349V262.922Z" fill="#23262F"/>
<path d="M222.212 262.922H217.355V267.779H222.212V262.922Z" fill="#23262F"/>
<path d="M227.064 262.922H222.207V267.779H227.064V262.922Z" fill="#23262F"/>
<path d="M231.927 262.922H227.07V267.779H231.927V262.922Z" fill="#23262F"/>
<path d="M236.783 262.922H231.926V267.779H236.783V262.922Z" fill="#23262F"/>
<path d="M251.353 262.922H246.496V267.779H251.353V262.922Z" fill="#23262F"/>
<path d="M256.212 262.922H251.355V267.779H256.212V262.922Z" fill="#23262F"/>
<path d="M261.068 262.922H256.211V267.779H261.068V262.922Z" fill="#23262F"/>
<path d="M270.775 262.922H265.918V267.779H270.775V262.922Z" fill="#23262F"/>
<path d="M275.638 262.922H270.781V267.779H275.638V262.922Z" fill="#23262F"/>
<path d="M280.493 262.922H275.637V267.779H280.493V262.922Z" fill="#23262F"/>
<path d="M285.353 262.922H280.496V267.779H285.353V262.922Z" fill="#23262F"/>
<path d="M290.208 262.922H285.352V267.779H290.208V262.922Z" fill="#23262F"/>
<path d="M304.779 262.922H299.922V267.779H304.779V262.922Z" fill="#23262F"/>
<path d="M193.072 267.777H188.215V272.634H193.072V267.777Z" fill="#23262F"/>
<path d="M197.931 267.777H193.074V272.634H197.931V267.777Z" fill="#23262F"/>
<path d="M202.779 267.777H197.922V272.634H202.779V267.777Z" fill="#23262F"/>
<path d="M207.642 267.777H202.785V272.634H207.642V267.777Z" fill="#23262F"/>
<path d="M222.212 267.777H217.355V272.634H222.212V267.777Z" fill="#23262F"/>
<path d="M227.064 267.777H222.207V272.634H227.064V267.777Z" fill="#23262F"/>
<path d="M231.927 267.777H227.07V272.634H231.927V267.777Z" fill="#23262F"/>
<path d="M236.783 267.777H231.926V272.634H236.783V267.777Z" fill="#23262F"/>
<path d="M256.212 267.777H251.355V272.634H256.212V267.777Z" fill="#23262F"/>
<path d="M261.068 267.777H256.211V272.634H261.068V267.777Z" fill="#23262F"/>
<path d="M265.923 267.777H261.066V272.634H265.923V267.777Z" fill="#23262F"/>
<path d="M270.775 267.777H265.918V272.634H270.775V267.777Z" fill="#23262F"/>
<path d="M290.208 267.777H285.352V272.634H290.208V267.777Z" fill="#23262F"/>
<path d="M299.923 267.777H295.066V272.634H299.923V267.777Z" fill="#23262F"/>
<path d="M193.072 272.639H188.215V277.495H193.072V272.639Z" fill="#23262F"/>
<path d="M202.779 272.639H197.922V277.495H202.779V272.639Z" fill="#23262F"/>
<path d="M217.349 272.639H212.492V277.495H217.349V272.639Z" fill="#23262F"/>
<path d="M227.064 272.639H222.207V277.495H227.064V272.639Z" fill="#23262F"/>
<path d="M241.634 272.639H236.777V277.495H241.634V272.639Z" fill="#23262F"/>
<path d="M270.775 272.639H265.918V277.495H270.775V272.639Z" fill="#23262F"/>
<path d="M280.493 272.639H275.637V277.495H280.493V272.639Z" fill="#23262F"/>
<path d="M290.208 272.639H285.352V277.495H290.208V272.639Z" fill="#23262F"/>
<path d="M295.064 272.639H290.207V277.495H295.064V272.639Z" fill="#23262F"/>
<path d="M202.779 277.492H197.922V282.349H202.779V277.492Z" fill="#23262F"/>
<path d="M207.642 277.492H202.785V282.349H207.642V277.492Z" fill="#23262F"/>
<path d="M222.212 277.492H217.355V282.349H222.212V277.492Z" fill="#23262F"/>
<path d="M227.064 277.492H222.207V282.349H227.064V277.492Z" fill="#23262F"/>
<path d="M231.927 277.492H227.07V282.349H231.927V277.492Z" fill="#23262F"/>
<path d="M246.497 277.492H241.641V282.349H246.497V277.492Z" fill="#23262F"/>
<path d="M261.068 277.492H256.211V282.349H261.068V277.492Z" fill="#23262F"/>
<path d="M270.775 277.492H265.918V282.349H270.775V277.492Z" fill="#23262F"/>
<path d="M290.208 277.492H285.352V282.349H290.208V277.492Z" fill="#23262F"/>
<path d="M309.634 277.492H304.777V282.349H309.634V277.492Z" fill="#23262F"/>
<path d="M193.072 282.348H188.215V287.204H193.072V282.348Z" fill="#23262F"/>
<path d="M197.931 282.348H193.074V287.204H197.931V282.348Z" fill="#23262F"/>
<path d="M202.779 282.348H197.922V287.204H202.779V282.348Z" fill="#23262F"/>
<path d="M207.642 282.348H202.785V287.204H207.642V282.348Z" fill="#23262F"/>
<path d="M212.493 282.348H207.637V287.204H212.493V282.348Z" fill="#23262F"/>
<path d="M217.349 282.348H212.492V287.204H217.349V282.348Z" fill="#23262F"/>
<path d="M222.212 282.348H217.355V287.204H222.212V282.348Z" fill="#23262F"/>
<path d="M231.927 282.348H227.07V287.204H231.927V282.348Z" fill="#23262F"/>
<path d="M246.497 282.348H241.641V287.204H246.497V282.348Z" fill="#23262F"/>
<path d="M261.068 282.348H256.211V287.204H261.068V282.348Z" fill="#23262F"/>
<path d="M270.775 282.348H265.918V287.204H270.775V282.348Z" fill="#23262F"/>
<path d="M275.638 282.348H270.781V287.204H275.638V282.348Z" fill="#23262F"/>
<path d="M280.493 282.348H275.637V287.204H280.493V282.348Z" fill="#23262F"/>
<path d="M285.353 282.348H280.496V287.204H285.353V282.348Z" fill="#23262F"/>
<path d="M290.208 282.348H285.352V287.204H290.208V282.348Z" fill="#23262F"/>
<path d="M295.064 282.348H290.207V287.204H295.064V282.348Z" fill="#23262F"/>
<path d="M309.634 282.348H304.777V287.204H309.634V282.348Z" fill="#23262F"/>
<path d="M197.931 287.209H193.074V292.066H197.931V287.209Z" fill="#23262F"/>
<path d="M217.349 287.209H212.492V292.066H217.349V287.209Z" fill="#23262F"/>
<path d="M222.212 287.209H217.355V292.066H222.212V287.209Z" fill="#23262F"/>
<path d="M241.634 287.209H236.777V292.066H241.634V287.209Z" fill="#23262F"/>
<path d="M246.497 287.209H241.641V292.066H246.497V287.209Z" fill="#23262F"/>
<path d="M251.353 287.209H246.496V292.066H251.353V287.209Z" fill="#23262F"/>
<path d="M265.923 287.209H261.066V292.066H265.923V287.209Z" fill="#23262F"/>
<path d="M280.493 287.209H275.637V292.066H280.493V287.209Z" fill="#23262F"/>
<path d="M285.353 287.209H280.496V292.066H285.353V287.209Z" fill="#23262F"/>
<path d="M290.208 287.209H285.352V292.066H290.208V287.209Z" fill="#23262F"/>
<path d="M295.064 287.209H290.207V292.066H295.064V287.209Z" fill="#23262F"/>
<path d="M299.923 287.209H295.066V292.066H299.923V287.209Z" fill="#23262F"/>
<path d="M304.779 287.209H299.922V292.066H304.779V287.209Z" fill="#23262F"/>
<path d="M197.931 292.062H193.074V296.919H197.931V292.062Z" fill="#23262F"/>
<path d="M222.212 292.059H217.355V296.915H222.212V292.059Z" fill="#23262F"/>
<path d="M227.064 292.062H222.207V296.919H227.064V292.062Z" fill="#23262F"/>
<path d="M241.634 292.062H236.777V296.919H241.634V292.062Z" fill="#23262F"/>
<path d="M251.353 292.062H246.496V296.919H251.353V292.062Z" fill="#23262F"/>
<path d="M256.212 292.062H251.355V296.919H256.212V292.062Z" fill="#23262F"/>
<path d="M275.638 292.062H270.781V296.919H275.638V292.062Z" fill="#23262F"/>
<path d="M280.493 292.062H275.637V296.919H280.493V292.062Z" fill="#23262F"/>
<path d="M285.353 292.062H280.496V296.919H285.353V292.062Z" fill="#23262F"/>
<path d="M290.208 292.062H285.352V296.919H290.208V292.062Z" fill="#23262F"/>
<path d="M295.064 292.062H290.207V296.919H295.064V292.062Z" fill="#23262F"/>
<path d="M299.923 292.062H295.066V296.919H299.923V292.062Z" fill="#23262F"/>
<path d="M207.642 296.914H202.785V301.771H207.642V296.914Z" fill="#23262F"/>
<path d="M212.493 296.914H207.637V301.771H212.493V296.914Z" fill="#23262F"/>
<path d="M217.349 296.914H212.492V301.771H217.349V296.914Z" fill="#23262F"/>
<path d="M227.064 296.924H222.207V301.781H227.064V296.924Z" fill="#23262F"/>
<path d="M231.927 296.924H227.07V301.781H231.927V296.924Z" fill="#23262F"/>
<path d="M236.783 296.924H231.926V301.781H236.783V296.924Z" fill="#23262F"/>
<path d="M241.634 296.924H236.777V301.781H241.634V296.924Z" fill="#23262F"/>
<path d="M256.212 296.914H251.355V301.771H256.212V296.914Z" fill="#23262F"/>
<path d="M280.493 296.914H275.637V301.771H280.493V296.914Z" fill="#23262F"/>
<path d="M193.072 301.779H188.215V306.636H193.072V301.779Z" fill="#23262F"/>
<path d="M202.779 301.779H197.922V306.636H202.779V301.779Z" fill="#23262F"/>
<path d="M236.783 301.779H231.926V306.636H236.783V301.779Z" fill="#23262F"/>
<path d="M246.497 301.779H241.641V306.636H246.497V301.779Z" fill="#23262F"/>
<path d="M251.353 301.779H246.496V306.636H251.353V301.779Z" fill="#23262F"/>
<path d="M256.212 301.779H251.355V306.636H256.212V301.779Z" fill="#23262F"/>
<path d="M261.068 301.779H256.211V306.636H261.068V301.779Z" fill="#23262F"/>
<path d="M265.923 301.779H261.066V306.636H265.923V301.779Z" fill="#23262F"/>
<path d="M270.775 301.779H265.918V306.636H270.775V301.779Z" fill="#23262F"/>
<path d="M280.493 301.779H275.637V306.636H280.493V301.779Z" fill="#23262F"/>
<path d="M299.915 301.779H295.059V306.636H299.915V301.779Z" fill="#23262F"/>
<path d="M309.634 301.779H304.777V306.636H309.634V301.779Z" fill="#23262F"/>
<path d="M178.253 146.355H154.455H149.355V151.455V175.253V180.353H154.455H178.253H183.353V175.253V151.455V146.355H178.253ZM178.253 175.253H154.455V151.455H178.253V175.253Z" fill="#23262F"/>
<path d="M304.531 146.355H280.732H275.633V151.455V175.253V180.353H280.732H304.531H309.63V175.253V151.455V146.355H304.531ZM304.531 175.253H280.732V151.455H304.531V175.253Z" fill="#23262F"/>
<path d="M178.253 272.639H154.455H149.355V277.738V301.536V306.636H154.455H178.253H183.353V301.536V277.738V272.639H178.253ZM178.253 301.536H154.455V277.738H178.253V301.536Z" fill="#23262F"/>
<path d="M173.644 156.072H159.074V170.643H173.644V156.072Z" fill="#23262F"/>
<path d="M299.922 156.072H285.352V170.643H299.922V156.072Z" fill="#23262F"/>
<path d="M173.644 282.348H159.074V296.918H173.644V282.348Z" fill="#23262F"/>
<rect x="139.781" y="224.883" width="177.82" height="94.5677" fill="url(#paint6_linear_1101_11711)" fill-opacity="0.69"/>
<g filter="url(#filter4_d_1101_11711)">
<line x1="139.355" y1="224.5" x2="316.408" y2="224.5" stroke="url(#paint7_linear_1101_11711)" stroke-width="4" stroke-linecap="round"/>
</g>
<defs>
<filter id="filter0_f_1101_11711" x="187.955" y="45.4822" width="472.25" height="844.76" filterUnits="userSpaceOnUse" color-interpolation-filters="sRGB">
<feFlood flood-opacity="0" result="BackgroundImageFix"/>
<feBlend mode="normal" in="SourceGraphic" in2="BackgroundImageFix" result="shape"/>
<feGaussianBlur stdDeviation="85.588" result="effect1_foregroundBlur_1101_11711"/>
</filter>
<filter id="filter1_f_1101_11711" x="0.167709" y="0.236069" width="590.885" height="853.858" filterUnits="userSpaceOnUse" color-interpolation-filters="sRGB">
<feFlood flood-opacity="0" result="BackgroundImageFix"/>
<feBlend mode="normal" in="SourceGraphic" in2="BackgroundImageFix" result="shape"/>
<feGaussianBlur stdDeviation="85.588" result="effect1_foregroundBlur_1101_11711"/>
</filter>
<filter id="filter2_b_1101_11711" x="99" y="96" width="261" height="261" filterUnits="userSpaceOnUse" color-interpolation-filters="sRGB">
<feFlood flood-opacity="0" result="BackgroundImageFix"/>
<feGaussianBlur in="BackgroundImageFix" stdDeviation="11.5"/>
<feComposite in2="SourceAlpha" operator="in" result="effect1_backgroundBlur_1101_11711"/>
<feBlend mode="normal" in="SourceGraphic" in2="effect1_backgroundBlur_1101_11711" result="shape"/>
</filter>
<filter id="filter3_b_1101_11711" x="99" y="96" width="261" height="261" filterUnits="userSpaceOnUse" color-interpolation-filters="sRGB">
<feFlood flood-opacity="0" result="BackgroundImageFix"/>
<feGaussianBlur in="BackgroundImageFix" stdDeviation="11.5"/>
<feComposite in2="SourceAlpha" operator="in" result="effect1_backgroundBlur_1101_11711"/>
<feBlend mode="normal" in="SourceGraphic" in2="effect1_backgroundBlur_1101_11711" result="shape"/>
</filter>
<filter id="filter4_d_1101_11711" x="122.355" y="207.5" width="211.053" height="34" filterUnits="userSpaceOnUse" color-interpolation-filters="sRGB">
<feFlood flood-opacity="0" result="BackgroundImageFix"/>
<feColorMatrix in="SourceAlpha" type="matrix" values="0 0 0 0 0 0 0 0 0 0 0 0 0 0 0 0 0 0 127 0" result="hardAlpha"/>
<feOffset/>
<feGaussianBlur stdDeviation="7.5"/>
<feColorMatrix type="matrix" values="0 0 0 0 0.145799 0 0 0 0 0.708333 0 0 0 0 0.201495 0 0 0 1 0"/>
<feBlend mode="normal" in2="BackgroundImageFix" result="effect1_dropShadow_1101_11711"/>
<feBlend mode="normal" in="SourceGraphic" in2="effect1_dropShadow_1101_11711" result="shape"/>
</filter>
<linearGradient id="paint0_linear_1101_11711" x1="128.895" y1="125.784" x2="340.132" y2="339.22" gradientUnits="userSpaceOnUse">
<stop offset="0.0001" stop-color="#FDFDFD" stop-opacity="0.22"/>
<stop offset="1" stop-color="#F3F3F3" stop-opacity="0"/>
</linearGradient>
<linearGradient id="paint1_linear_1101_11711" x1="122" y1="321.906" x2="413.054" y2="275.323" gradientUnits="userSpaceOnUse">
<stop stop-color="#1D5CF9"/>
<stop offset="1" stop-color="#00B8DF"/>
</linearGradient>
<linearGradient id="paint2_linear_1101_11711" x1="164.432" y1="161.432" x2="130.32" y2="157.053" gradientUnits="userSpaceOnUse">
<stop stop-color="#28C254"/>
<stop offset="1" stop-color="#25B567"/>
</linearGradient>
<linearGradient id="paint3_linear_1101_11711" x1="294.564" y1="161.432" x2="298.943" y2="127.32" gradientUnits="userSpaceOnUse">
<stop stop-color="#28C254"/>
<stop offset="1" stop-color="#25B567"/>
</linearGradient>
<linearGradient id="paint4_linear_1101_11711" x1="294.564" y1="291.566" x2="328.676" y2="295.945" gradientUnits="userSpaceOnUse">
<stop stop-color="#28C254"/>
<stop offset="1" stop-color="#25B567"/>
</linearGradient>
<linearGradient id="paint5_linear_1101_11711" x1="164.432" y1="291.566" x2="160.053" y2="325.678" gradientUnits="userSpaceOnUse">
<stop stop-color="#28C254"/>
<stop offset="1" stop-color="#25B567"/>
</linearGradient>
<linearGradient id="paint6_linear_1101_11711" x1="228.691" y1="224.883" x2="228.691" y2="319.45" gradientUnits="userSpaceOnUse">
<stop stop-color="#25B533"/>
<stop offset="1" stop-color="#25B533" stop-opacity="0"/>
</linearGradient>
<linearGradient id="paint7_linear_1101_11711" x1="318.408" y1="227.5" x2="317.992" y2="217.832" gradientUnits="userSpaceOnUse">
<stop stop-color="#28C254"/>
<stop offset="1" stop-color="#25B567"/>
</linearGradient>
</defs>
</svg>
