<svg id="Layer_1" data-name="Layer 1" xmlns="http://www.w3.org/2000/svg" viewBox="0 0 26 25"><defs><style>.cls-1{fill:#fff;}</style></defs><path class="cls-1" d="M15.76,2.6C12.39,2.6,8.66,3.86,7.87,8a.61.61,0,0,0,.51.73l3.41.35a.77.77,0,0,0,.65-.63A2.69,2.69,0,0,1,15.27,6.3a2.37,2.37,0,0,1,2,.92,4.41,4.41,0,0,1,.41,2.52v.48c-2.05.23-4.72.36-6.64,1.2a6,6,0,0,0-3.77,5.72c0,3.63,2.33,5.46,5.3,5.46,2.52,0,3.87-.6,5.81-2.55a8.47,8.47,0,0,0,2.05,2.33.71.71,0,0,0,.82-.09v0c.71-.62,2-1.74,2.71-2.33a.64.64,0,0,0,0-.92,4.83,4.83,0,0,1-1.3-3.26V10.38c0-2.32.16-4.45-1.57-6A8.06,8.06,0,0,0,15.76,2.6Zm1,10.43c.32,0,.64,0,1,0v.76A6.76,6.76,0,0,1,17,17.48a2.87,2.87,0,0,1-2.45,1.58c-1.36,0-2.14-1-2.14-2.53C12.44,13.93,14.48,13.17,16.71,13Zm9.94,8.79a5.23,5.23,0,0,0-2.79.77c-.25.18-.21.42.07.39.92-.11,2.94-.37,3.31.1s-.41,2.35-.75,3.2c-.1.26.12.36.36.16,1.52-1.26,1.93-3.88,1.62-4.27A3.28,3.28,0,0,0,26.65,21.82Zm-23.9.48c-.19,0-.26.28-.06.46A19.1,19.1,0,0,0,15.52,27.6a18.84,18.84,0,0,0,10.55-3.18c.47-.34.06-.87-.42-.67a25.92,25.92,0,0,1-9.83,2A26,26,0,0,1,3,22.37a.38.38,0,0,0-.23-.07Z" transform="translate(-2.57 -2.6)"/></svg>