<svg id="Layer_1" data-name="Layer 1" xmlns="http://www.w3.org/2000/svg" viewBox="0 0 24 24"><circle cx="12" cy="12" r="12" fill="#2cb742"/><path d="M17.55,5.75a5,5,0,0,0-3,1.71,4.91,4.91,0,0,0-.64,3.29h-.44s0-.09,0-.14a1.34,1.34,0,0,0-1.11-1.34,4.91,4.91,0,0,0,1.46-3.13A5,5,0,0,0,12.32,3a5,5,0,0,0-1.46,3.14A5,5,0,0,0,12.3,9.26h0a1.35,1.35,0,0,0-1.17,1.36v.15h-.46A4.93,4.93,0,0,0,10,7.46,5,5,0,0,0,7,5.75a5,5,0,0,0,.63,3.41,4.61,4.61,0,0,0,2.51,1.6H9.79a1.06,1.06,0,0,0-.95,1,61,61,0,0,0-.36,6.1c0,1.91.64,2.82,1.22,3.24a1.45,1.45,0,0,0,1.5.21,1.68,1.68,0,0,0,.36-.21,2.53,2.53,0,0,0,.26-.23l.12.13a2.26,2.26,0,0,0,.34.23,2.92,2.92,0,0,0,.34-.23l.12-.13a1.79,1.79,0,0,0,.26.23,1.53,1.53,0,0,0,1.86,0c.58-.42,1.21-1.33,1.21-3.24a61,61,0,0,0-.36-6.1,1.05,1.05,0,0,0-1-1h-.34a4.59,4.59,0,0,0,2.51-1.59A5,5,0,0,0,17.55,5.75Z" fill="#fff"/><path d="M18.05,5.65,18,5.18l-.48.07a5.54,5.54,0,0,0-3.35,1.92v0a4,4,0,0,0,.16-1.05,5.47,5.47,0,0,0-1.62-3.5l-.35-.33L12,2.64a5.42,5.42,0,0,0-1.62,3.5,4.09,4.09,0,0,0,.27,1.43,2.73,2.73,0,0,0-.23-.4A5.5,5.5,0,0,0,7.06,5.25l-.48-.07-.09.47a5.51,5.51,0,0,0,.71,3.8,4.45,4.45,0,0,0,1.56,1.31,1.78,1.78,0,0,0-.41,1A59.89,59.89,0,0,0,8,17.89c0,2.15.77,3.17,1.42,3.65a2.1,2.1,0,0,0,1.23.42,1.83,1.83,0,0,0,.78-.17,2.44,2.44,0,0,0,.41-.24l.22.15.24.13.24-.13c.07,0,.14-.1.21-.15a2.05,2.05,0,0,0,2.42,0c.65-.48,1.42-1.5,1.42-3.65,0-2.41-.23-4.89-.36-6.16a1.82,1.82,0,0,0-.42-1,4.3,4.3,0,0,0,1.55-1.3A5.51,5.51,0,0,0,18.05,5.65ZM13.39,9.27a2.18,2.18,0,0,0-.22-.21,4.94,4.94,0,0,0,.35-.51A6.87,6.87,0,0,0,13.39,9.27ZM12.32,3.76a4.07,4.07,0,0,1,1,2.38,4.11,4.11,0,0,1-1,2.39,4.07,4.07,0,0,1-1-2.39A4.07,4.07,0,0,1,12.32,3.76ZM11.45,9a1.48,1.48,0,0,0-.3.26,5,5,0,0,0-.26-1.15A6.27,6.27,0,0,0,11.45,9ZM8,8.87a4.15,4.15,0,0,1-.59-2.51A4.16,4.16,0,0,1,9.59,7.75a4.07,4.07,0,0,1,.59,2.5A4.07,4.07,0,0,1,8,8.87Zm2,11.86a3.41,3.41,0,0,1-1-2.84c0-2.36.23-4.8.36-6.05,0-.33.23-.58.45-.58h.26l.49.11h0c-.13,1.65-.27,3.83-.27,6a6.14,6.14,0,0,0,.83,3.47l-.11.06A1,1,0,0,1,10,20.73Zm2.29-.07h0c-.45-.39-1-1.29-1-3.3,0-2.48.18-5,.33-6.69a1,1,0,0,1,.53-.86l.18.17.17-.15a1.06,1.06,0,0,1,.46.84c.15,1.69.32,4.22.32,6.69,0,2-.53,2.91-1,3.3Zm2.48-9.41c.22,0,.42.26.45.59a58.09,58.09,0,0,1,.36,6.05,3.41,3.41,0,0,1-1,2.84,1,1,0,0,1-1.11.08,6.14,6.14,0,0,0,.82-3.46c0-2.14-.13-4.33-.26-6a3.72,3.72,0,0,0,.48-.11Zm1.77-2.38a4.07,4.07,0,0,1-2.17,1.38h0A4.14,4.14,0,0,1,15,7.75a4.16,4.16,0,0,1,2.17-1.39A4.1,4.1,0,0,1,16.53,8.87Z" fill="#333"/></svg>