<svg id="Layer_1" data-name="Layer 1" xmlns="http://www.w3.org/2000/svg" viewBox="0 0 24 24"><circle cx="12" cy="12" r="12" fill="#fdc400"/><path d="M12,9.66s1.92-1.39,1.92-3.11S12,3.44,12,3.44s-1.92,1.39-1.92,3.11S12,9.66,12,9.66Z" fill="#fff"/><path d="M12,12.9s2.28.65,3.63-.42,1.26-3.43,1.26-3.43-2.28-.64-3.63.42S12,12.9,12,12.9Z" fill="#fff"/><path d="M12,12.9s.09-2.36-1.26-3.43-3.63-.42-3.63-.42S7,11.42,8.37,12.48,12,12.9,12,12.9Z" fill="#fff"/><path d="M13.58,13.94c-1.45.93-1.58,3.3-1.58,3.3s2.21.85,3.65-.08,1.58-3.29,1.58-3.29S15,13,13.58,13.94Z" fill="#fff"/><path d="M10.42,13.94C9,13,6.77,13.87,6.77,13.87s.13,2.36,1.58,3.29,3.65.08,3.65.08S11.87,14.87,10.42,13.94Z" fill="#fff"/><path d="M17.41,13.4A7.21,7.21,0,0,0,15.68,13a1.4,1.4,0,0,0,.26-.16c1.53-1.2,1.45-3.73,1.45-3.84l0-.36L17,8.57a5.71,5.71,0,0,0-3.39.12,3.75,3.75,0,0,0,.79-2.14c0-1.95-2-3.45-2.13-3.52L12,2.82,11.71,3c-.09.07-2.13,1.57-2.13,3.52a3.75,3.75,0,0,0,.79,2.14A5.72,5.72,0,0,0,7,8.57l-.35.1,0,.36c0,.11-.08,2.64,1.45,3.84a1.4,1.4,0,0,0,.26.16,6.7,6.7,0,0,0-1.73.37l-.34.13,0,.36c0,.11.17,2.64,1.81,3.69A3.56,3.56,0,0,0,10,18.1a6.57,6.57,0,0,0,1.47-.19V21h1V17.91A6.57,6.57,0,0,0,14,18.1a3.56,3.56,0,0,0,1.95-.52c1.64-1,1.81-3.58,1.81-3.69l0-.36Zm-4.91.11a6.79,6.79,0,0,0,.73.08,3,3,0,0,0-.73.73Zm-1,.8a3.12,3.12,0,0,0-.73-.72,6.79,6.79,0,0,0,.73-.08Zm4.88-4.86a3.76,3.76,0,0,1-1.06,2.64,3.73,3.73,0,0,1-2.81.41,3.76,3.76,0,0,1,1.06-2.63A3.7,3.7,0,0,1,16.38,9.45ZM12,4.08a3.78,3.78,0,0,1,1.42,2.47A3.75,3.75,0,0,1,12,9a3.75,3.75,0,0,1-1.42-2.46A3.78,3.78,0,0,1,12,4.08ZM7.62,9.45a3.79,3.79,0,0,1,2.81.42,3.75,3.75,0,0,1,1.06,2.64,3.79,3.79,0,0,1-2.81-.42A3.77,3.77,0,0,1,7.62,9.45Zm1,7.29a3.74,3.74,0,0,1-1.31-2.52,3.78,3.78,0,0,1,2.84.14,3.8,3.8,0,0,1,1.31,2.53A3.78,3.78,0,0,1,8.62,16.74Zm6.76,0a3.78,3.78,0,0,1-2.84.15,3.81,3.81,0,0,1,1.31-2.53,3.78,3.78,0,0,1,2.84-.14A3.74,3.74,0,0,1,15.38,16.74Z" fill="#333"/></svg>