<svg id="Layer_1" data-name="Layer 1" xmlns="http://www.w3.org/2000/svg" viewBox="0 0 24 24"><circle cx="12" cy="12" r="12" fill="#ff6b6c"/><path d="M7.51,7.6V5A2.59,2.59,0,1,0,10.1,7.6Z" fill="#fff"/><path d="M16.41,5V7.59H13.83A2.59,2.59,0,1,0,16.41,5Z" fill="#fff"/><path d="M12.08,11.43a2.49,2.49,0,0,0-2.49,2.5v1.89a2.49,2.49,0,1,0,5,0V13.93A2.5,2.5,0,0,0,12.08,11.43Z" fill="#fff"/><path d="M15.07,15.65l.53,0c1.58,0,2.67-.3,3.24-.92l-.73-.68c-.41.44-1.51.65-3,.59v-.73c0-.1,0-.2,0-.3a2.75,2.75,0,0,0,2.1-1,3.09,3.09,0,0,0,.5-2.23A3.09,3.09,0,0,0,16.41,4.5h-.5V7.09H13.33v.5a3.08,3.08,0,0,0,3.08,3.08l.25,0A2,2,0,0,1,16.35,12a2,2,0,0,1-1.57.62,3,3,0,0,0-5.4,0A1.94,1.94,0,0,1,7.86,12a2,2,0,0,1-.31-1.36A3.08,3.08,0,0,0,10.6,7.6V7.1H8V4.51h-.5a3.08,3.08,0,0,0-1,6,3.05,3.05,0,0,0,.51,2.13,2.74,2.74,0,0,0,2,1c0,.1,0,.2,0,.3v.73c-1.53.06-2.63-.15-3-.59l-.73.68c.57.62,1.65.92,3.24.92l.53,0v.17a2.68,2.68,0,0,0,.11.76,4.35,4.35,0,0,1-2.87,1.24v1a5.2,5.2,0,0,0,3.3-1.29,3,3,0,0,0,4.9,0,5.19,5.19,0,0,0,3.29,1.29v-1A4.35,4.35,0,0,1,15,16.58a3.1,3.1,0,0,0,.11-.76Zm-.68-7.56h2.52V5.56a2.08,2.08,0,0,1-.5,4.11A2.07,2.07,0,0,1,14.39,8.09Zm-9-.49A2.09,2.09,0,0,1,7,5.57V8.1H9.54a2.08,2.08,0,0,1-4.11-.5Zm8.64,8.22a2,2,0,1,1-4,0V13.93a2,2,0,1,1,4,0Z" fill="#333"/></svg>