<svg id="Layer_1" data-name="Layer 1" xmlns="http://www.w3.org/2000/svg" viewBox="0 0 24 24"><circle cx="12" cy="12" r="12" fill="#ffa103"/><path d="M11.76,4c-2.5,0-5.51,3.79-5.51,8.14,0,6.24,3.86,7,5.51,7s5.51-.79,5.51-7C17.27,7.79,14.26,4,11.76,4Z" fill="#fff"/><path d="M11.76,3.5c-2.72,0-6,3.85-6,8.64,0,7,4.6,7.53,6,7.53s6-.54,6-7.53C17.77,7.35,14.49,3.5,11.76,3.5Zm0,15.17c-1.5,0-5-.64-5-6.53,0-4,2.8-7.64,5-7.64s5,3.6,5,7.64C16.77,18,13.27,18.67,11.76,18.67Z" fill="#333"/><path d="M15.77,9.49a8.18,8.18,0,0,0-3-4.11.49.49,0,0,0-.69.14.5.5,0,0,0,.14.69,7.32,7.32,0,0,1,2.61,3.61.53.53,0,0,0,.64.31A.5.5,0,0,0,15.77,9.49Z" fill="#333"/></svg>