<svg id="Layer_1" data-name="Layer 1" xmlns="http://www.w3.org/2000/svg" viewBox="0 0 24 24"><circle cx="12" cy="12" r="12" fill="#00b9d5"/><path d="M19.26,9.09l-1.42,1.15-1.27,1A8.34,8.34,0,0,0,10,7.85c-3.78,0-6.85,3-6.85,4.16S6.21,16.17,10,16.17a8.23,8.23,0,0,0,6.6-3.44l1.25,1,1.42,1.15a.45.45,0,0,0,.74-.35V9.44A.45.45,0,0,0,19.26,9.09Z" fill="#fff"/><path d="M20,8.58a.93.93,0,0,0-1,.12l-2.28,1.84A9,9,0,0,0,10,7.35c-4,0-7.35,3.08-7.35,4.66S6,16.67,10,16.67a8.88,8.88,0,0,0,6.72-3.21L19,15.27a.93.93,0,0,0,.59.21,1,1,0,0,0,.42-.09,1,1,0,0,0,.54-.86V9.44A1,1,0,0,0,20,8.58ZM3.64,12c0-.56,1.46-2.26,3.67-3.14a3.88,3.88,0,0,1,1.36,3.07A3.82,3.82,0,0,1,7.18,15.1C5,14.24,3.64,12.62,3.64,12ZM10,15.67a7.18,7.18,0,0,1-1.69-.21,5,5,0,0,0,1.37-3.52A5.06,5.06,0,0,0,8.41,8.53,7.35,7.35,0,0,1,10,8.35c3.65,0,6.35,2.89,6.35,3.66S13.48,15.67,10,15.67Zm7.22-3.09a1.61,1.61,0,0,0,.13-.57,1.66,1.66,0,0,0-.14-.61l.95-.77L19.5,9.44V12l.08,2.51Z" fill="#333"/><path d="M7.21,11.94a1.32,1.32,0,1,0-1.32,1.32A1.32,1.32,0,0,0,7.21,11.94Zm-1.32.32a.33.33,0,0,1-.32-.32.32.32,0,0,1,.32-.32.32.32,0,0,1,.32.32A.32.32,0,0,1,5.89,12.26Z" fill="#333"/></svg>