<svg id="Layer_1" data-name="Layer 1" xmlns="http://www.w3.org/2000/svg" viewBox="0 0 24 24"><circle cx="12" cy="12" r="12" fill="#de8251"/><path d="M17.91,11.28c0-.25-.4-.38-.67-.24a14.31,14.31,0,0,0-2.53,1.73v-.48C14.71,7.71,13.45,4,11.88,4S9.2,7.31,9.07,11.54A15.1,15.1,0,0,0,6.85,9.71c-.25-.18-.66-.06-.7.2a9.65,9.65,0,0,0,.73,5.75,13.06,13.06,0,0,0,4.32,4.71l.12,0a1.07,1.07,0,0,0,.56.17,1.12,1.12,0,0,0,.55-.16.38.38,0,0,0,.1,0A11.53,11.53,0,0,0,17,16.45,8.06,8.06,0,0,0,17.91,11.28Z" fill="#fff"/><path d="M18.41,11.21a.84.84,0,0,0-.46-.62,1,1,0,0,0-.94,0,16.86,16.86,0,0,0-1.81,1.13C15.11,7.64,14,3.5,11.88,3.5c-1.85,0-3,3.32-3.25,7A17.08,17.08,0,0,0,7.14,9.3a1,1,0,0,0-1-.09.82.82,0,0,0-.51.62,10.06,10.06,0,0,0,.77,6.05,13.42,13.42,0,0,0,4.49,4.9,1.08,1.08,0,0,0,.29.13,1.42,1.42,0,0,0,.67.17,1.4,1.4,0,0,0,.63-.16.58.58,0,0,0,.25-.09,12,12,0,0,0,4.64-4.12h0A8.52,8.52,0,0,0,18.41,11.21ZM11.88,4.5c1,0,2.33,3,2.33,7.79v.25a9.39,9.39,0,0,0-1.84,2.19,5.34,5.34,0,0,0-.3.58,8.53,8.53,0,0,0-.44-1.11,11.3,11.3,0,0,0-2.05-2.85C9.74,7.08,11,4.5,11.88,4.5ZM7.33,15.44a9.08,9.08,0,0,1-.71-5.29,12.7,12.7,0,0,1,4.11,4.49,8.3,8.3,0,0,1,.73,2.45,8.94,8.94,0,0,0-.14,2.75A12.5,12.5,0,0,1,7.33,15.44Zm9.21.76a10.9,10.9,0,0,1-4.08,3.65,10.39,10.39,0,0,0,0-2.7,6.53,6.53,0,0,1,.75-1.91,11.19,11.19,0,0,1,4.21-3.73A7.59,7.59,0,0,1,16.54,16.2Z" fill="#333"/></svg>