<svg id="Layer_1" data-name="Layer 1" xmlns="http://www.w3.org/2000/svg" viewBox="0 0 24 24"><circle cx="12" cy="12" r="12" fill="#fdc400"/><path d="M12.23,8c.29-1.42,0-3.5-1.4-3.5S9.08,5.87,8,5.87s-1-.7-2.1-.35a2.34,2.34,0,0,0-1.4,2.1c0,2.1,1.07,3.28,2.8,3.5A4.2,4.2,0,0,0,12.23,8Z" fill="#fff"/><path d="M20.08,9.81a4.2,4.2,0,0,0-5.79-.68c-1.11.92-2.22,2.71-1.14,3.6s2.24,0,3,.69.37,1.21,1.4,1.61A2.35,2.35,0,0,0,20,14.29C21.35,12.67,21.28,11.08,20.08,9.81Z" fill="#fff"/><path d="M10.26,14.39c-.86-.6-.46-1.18-1.52-1.49a2.34,2.34,0,0,0-2.35.93c-1.2,1.73-1,3.31.31,4.47a4.19,4.19,0,0,0,5.82.2c1-1,2-2.87.84-3.67S11.13,15,10.26,14.39Z" fill="#fff"/><path d="M7.27,11.61a5.27,5.27,0,0,0,.78.05,4.58,4.58,0,0,0,4.67-3.59,4.47,4.47,0,0,0-.55-3.46A1.68,1.68,0,0,0,10.83,4a2.79,2.79,0,0,0-1.95.9c-.35.32-.56.5-.85.5a1.39,1.39,0,0,1-.72-.2A1.71,1.71,0,0,0,5.78,5,2.84,2.84,0,0,0,4,7.61H4C4,9.9,5.21,11.36,7.27,11.61ZM6.09,6a.74.74,0,0,1,.76.07A2.34,2.34,0,0,0,8,6.37a2.24,2.24,0,0,0,1.52-.75A1.84,1.84,0,0,1,10.83,5a.72.72,0,0,1,.57.27,3.57,3.57,0,0,1,.34,2.63A3.69,3.69,0,0,1,7.4,10.62C5.85,10.43,5,9.39,5,7.62A1.83,1.83,0,0,1,6.09,6Z" fill="#333"/><path d="M7.94,7.76a3.45,3.45,0,0,0,2.2-.84.5.5,0,1,0-.71-.71c-.38.39-1.64.8-2.09.35a.5.5,0,1,0-.71.71A1.8,1.8,0,0,0,7.94,7.76Z" fill="#333"/><path d="M20.44,9.47A4.67,4.67,0,0,0,14,8.75a4.47,4.47,0,0,0-1.77,3,1.71,1.71,0,0,0,.62,1.34,2.75,2.75,0,0,0,2.08.54c.48,0,.76,0,1,.16a1.38,1.38,0,0,1,.43.61,1.66,1.66,0,0,0,1.1,1.07,2.27,2.27,0,0,0,.85.16,3.11,3.11,0,0,0,2.13-1h0C21.85,12.85,21.87,11,20.44,9.47Zm-.8,4.5a1.83,1.83,0,0,1-1.86.59.74.74,0,0,1-.54-.53,2.44,2.44,0,0,0-.72-1,1.86,1.86,0,0,0-1.28-.4h-.37a1.83,1.83,0,0,1-1.4-.31.69.69,0,0,1-.26-.57,3.58,3.58,0,0,1,1.4-2.25,3.72,3.72,0,0,1,5.11.64C20.79,11.29,20.76,12.6,19.64,14Z" fill="#333"/><path d="M15.25,11.27a.5.5,0,0,0-.45.55.51.51,0,0,0,.55.45c.54,0,1.77.42,1.83,1.06a.51.51,0,0,0,.5.45h.05a.51.51,0,0,0,.45-.55C18.05,11.87,16.18,11.18,15.25,11.27Z" fill="#333"/><path d="M13.65,14.42a2.79,2.79,0,0,0-2.12-.37c-.47.06-.75.09-1-.07a1.39,1.39,0,0,1-.48-.58,1.73,1.73,0,0,0-1.19-1A2.83,2.83,0,0,0,6,13.54H6c-1.3,1.87-1.16,3.74.39,5.13a5.1,5.1,0,0,0,3.43,1.4,4.43,4.43,0,0,0,3.07-1.22,4.52,4.52,0,0,0,1.51-3.16A1.67,1.67,0,0,0,13.65,14.42Zm-1.48,3.72A3.69,3.69,0,0,1,7,17.93c-1.16-1-1.24-2.35-.23-3.81a1.82,1.82,0,0,1,1.8-.74.74.74,0,0,1,.58.49,2.41,2.41,0,0,0,.8.93,2.26,2.26,0,0,0,1.68.24,1.86,1.86,0,0,1,1.42.2.67.67,0,0,1,.3.54A3.59,3.59,0,0,1,12.17,18.14Z" fill="#333"/><path d="M11.21,15.47c-.53.09-1.8-.28-1.92-.91a.49.49,0,0,0-.58-.4.5.5,0,0,0-.4.58C8.53,15.92,10,16.48,11,16.48a2,2,0,0,0,.36,0,.5.5,0,0,0,.4-.58A.49.49,0,0,0,11.21,15.47Z" fill="#333"/></svg>