<svg id="Layer_1" data-name="Layer 1" xmlns="http://www.w3.org/2000/svg" viewBox="0 0 24 24"><circle cx="12" cy="12" r="12" fill="#938cb6"/><path d="M15.42,8.34,14,5.92h-.45a1.15,1.15,0,0,0,0-2.29H10.33A1.15,1.15,0,0,0,9.19,4.78h0a1.14,1.14,0,0,0,1.14,1.14H9.88L8.42,8.34a2.53,2.53,0,0,0-.36,1.31v8.21A2.12,2.12,0,0,0,10.18,20h3.49a2.12,2.12,0,0,0,2.11-2.12V9.65A2.53,2.53,0,0,0,15.42,8.34Z" fill="#fff"/><path d="M15.85,8.08,14.59,6a1.64,1.64,0,0,0-1.08-2.87H10.33A1.64,1.64,0,0,0,9.25,6L8,8.08a3.12,3.12,0,0,0-.43,1.57v8.21a2.62,2.62,0,0,0,2.62,2.62h3.49a2.61,2.61,0,0,0,2.61-2.62V9.65A3.12,3.12,0,0,0,15.85,8.08ZM10.33,4.13h3.18a.65.65,0,0,1,0,1.29H10.33a.65.65,0,0,1,0-1.29Zm4.95,13.73a1.61,1.61,0,0,1-1.61,1.62H10.18a1.61,1.61,0,0,1-1.62-1.62V9.65A2.05,2.05,0,0,1,8.85,8.6l1.32-2.18h3.51L15,8.6a2.05,2.05,0,0,1,.29,1.05Z" fill="#333"/><path d="M10,9.5a.5.5,0,0,0-.5.5v4a.5.5,0,0,0,1,0V10A.5.5,0,0,0,10,9.5Z" fill="#333"/></svg>