<svg id="Layer_1" data-name="Layer 1" xmlns="http://www.w3.org/2000/svg" viewBox="0 0 24 24"><circle cx="12" cy="12" r="12" fill="#ff6b6c"/><path d="M20,11c.22-6.38-8-6.25-8-6.25S3.77,4.65,4,11a1.24,1.24,0,0,0,.36.83c1.86,1.82,4,3.89,5.58,5.36H9.83a1.39,1.39,0,0,0-1.31.92.88.88,0,0,0,.83,1.17h5.29a.88.88,0,0,0,.83-1.17,1.39,1.39,0,0,0-1.31-.92h-.11c1.55-1.47,3.72-3.54,5.58-5.36A1.3,1.3,0,0,0,20,11Z" fill="#fff"/><path d="M20.49,11a5.64,5.64,0,0,0-1.56-4.33C16.53,4.27,12.27,4.27,12,4.28s-4.54,0-6.94,2.43A5.64,5.64,0,0,0,3.5,11,1.66,1.66,0,0,0,4,12.21C5.62,13.8,7.46,15.56,8.94,17a1.88,1.88,0,0,0-.89,1,1.41,1.41,0,0,0,.17,1.26,1.4,1.4,0,0,0,1.13.58h5.29a1.4,1.4,0,0,0,1.13-.58A1.41,1.41,0,0,0,15.94,18a1.88,1.88,0,0,0-.89-1c1.48-1.4,3.32-3.16,4.93-4.75A1.66,1.66,0,0,0,20.49,11Zm-8,5.68V5.3a11.21,11.21,0,0,1,4,1L12.93,16.72Zm-1.4,0L7.49,6.24a11.51,11.51,0,0,1,4-1V16.72ZM4.49,11A4.7,4.7,0,0,1,5.77,7.42a6,6,0,0,1,.83-.69L10,16.63c-1.53-1.45-3.57-3.4-5.33-5.13A.76.76,0,0,1,4.49,11ZM15,18.65a.38.38,0,0,1-.31.16H9.35A.38.38,0,0,1,9,18.65a.36.36,0,0,1,0-.35.88.88,0,0,1,.83-.58h4.33a.89.89,0,0,1,.84.58A.39.39,0,0,1,15,18.65Zm4.33-7.15c-1.72,1.69-3.71,3.58-5.22,5l3.39-9.74a5.81,5.81,0,0,1,.77.64A4.7,4.7,0,0,1,19.5,11,.74.74,0,0,1,19.28,11.5Z" fill="#333"/></svg>