<svg id="Layer_1" data-name="Layer 1" xmlns="http://www.w3.org/2000/svg" viewBox="0 0 24 24"><circle cx="12" cy="12" r="12" fill="#ffa103"/><path d="M15.94,16.51a2,2,0,0,1-.24-2.33,4,4,0,0,0-1.13-5.3,1,1,0,0,0,.66-1V7.67a1,1,0,0,0-1-1h-.35l-.79-3.17A.58.58,0,0,0,12.49,3H12a.59.59,0,0,0-.57.45l-.78,3.17h-.35a1,1,0,0,0-1,1v.24a1,1,0,0,0,.68,1,4,4,0,0,0-1.15,5.28,2.08,2.08,0,0,1-.23,2.35,4.65,4.65,0,0,0-1.06,3,.92.92,0,0,0,.92.91h7.68a.91.91,0,0,0,.92-.9A4.72,4.72,0,0,0,15.94,16.51Z" fill="#fff"/><path d="M16.33,16.19a1.51,1.51,0,0,1-.2-1.75,4.56,4.56,0,0,0,.53-3.18,4.43,4.43,0,0,0-1.3-2.35,1.54,1.54,0,0,0,.37-1V7.67a1.55,1.55,0,0,0-1.5-1.55l-.69-2.8a1.08,1.08,0,0,0-1.06-.82H12a1.08,1.08,0,0,0-1.05.83l-.69,2.79A1.56,1.56,0,0,0,8.74,7.67v.24a1.51,1.51,0,0,0,.39,1,4.45,4.45,0,0,0-.79,5.49,1.57,1.57,0,0,1-.19,1.78A5.25,5.25,0,0,0,7,19.5,1.41,1.41,0,0,0,8.4,20.9h7.68a1.41,1.41,0,0,0,1.42-1.4A5.19,5.19,0,0,0,16.33,16.19ZM11.91,3.57A.08.08,0,0,1,12,3.5h.49a.1.1,0,0,1,.09.07l.63,2.55H11.28ZM9.74,7.67a.55.55,0,0,1,.55-.55h3.9a.55.55,0,0,1,.54.55v.24a.55.55,0,0,1-.54.55h-3.9a.55.55,0,0,1-.55-.55ZM16.08,19.9H8.4A.41.41,0,0,1,8,19.49a4.2,4.2,0,0,1,.94-2.67,2.55,2.55,0,0,0,.28-2.91A3.52,3.52,0,0,1,10,9.44h0l.27,0h3.9a1.15,1.15,0,0,0,.26,0,3.42,3.42,0,0,1,1.23,2,3.51,3.51,0,0,1-.41,2.48h0a2.54,2.54,0,0,0,.29,2.89,4.22,4.22,0,0,1,.95,2.68A.41.41,0,0,1,16.08,19.9Z" fill="#333"/><path d="M13.47,11.63a1.28,1.28,0,1,0,1.28,1.28A1.28,1.28,0,0,0,13.47,11.63Zm0,1.56a.28.28,0,0,1-.28-.28.28.28,0,0,1,.56,0A.28.28,0,0,1,13.47,13.19Z" fill="#333"/><path d="M12.57,14.44a1.4,1.4,0,1,0,1.4,1.4A1.4,1.4,0,0,0,12.57,14.44Zm0,1.8a.4.4,0,1,1,.4-.4A.4.4,0,0,1,12.57,16.24Z" fill="#333"/><circle cx="11.1" cy="13.69" r="0.95" fill="#333"/></svg>