<svg id="Layer_1" data-name="Layer 1" xmlns="http://www.w3.org/2000/svg" viewBox="0 0 24 24"><circle cx="12" cy="12" r="12" fill="#de8251"/><path d="M15.8,10.54a4.38,4.38,0,0,0,.53-2.19,4.44,4.44,0,0,0-8.87.08A4.42,4.42,0,0,0,8,10.51a2.86,2.86,0,0,1,0,2.68,4.39,4.39,0,0,0-.54,2.19,4.49,4.49,0,0,0,4.26,4.35,4.45,4.45,0,0,0,4.1-6.51A2.86,2.86,0,0,1,15.8,10.54Z" fill="#fff"/><path d="M16.26,13a2.34,2.34,0,0,1,0-2.21,4.92,4.92,0,0,0,.59-2.44A5,5,0,0,0,12.1,3.5a4.94,4.94,0,0,0-4.57,7.24,2.34,2.34,0,0,1,0,2.21A4.93,4.93,0,0,0,7,15.39a5,5,0,0,0,4.74,4.84h.2a4.91,4.91,0,0,0,4.93-4.93A4.85,4.85,0,0,0,16.26,13Zm-1.64,5.14a4,4,0,0,1-2.88,1.1A4,4,0,0,1,8,15.37a3.91,3.91,0,0,1,.48-1.95,3.35,3.35,0,0,0,0-3.15A3.93,3.93,0,0,1,11.9,4.5h.16a4,4,0,0,1,3.77,3.86,3.91,3.91,0,0,1-.47,2,3.32,3.32,0,0,0,0,3.15,3.91,3.91,0,0,1,.45,1.84A3.87,3.87,0,0,1,14.62,18.13Z" fill="#333"/><path d="M11.54,16.91a2.22,2.22,0,0,1-2-1.37.5.5,0,1,0-.91.4,3.2,3.2,0,0,0,2.91,2,.5.5,0,0,0,.5-.5A.5.5,0,0,0,11.54,16.91Z" fill="#333"/><path d="M11.54,5.5a.5.5,0,0,0,0,1,2.21,2.21,0,0,1,2,1.37.5.5,0,0,0,.46.3.48.48,0,0,0,.2,0,.5.5,0,0,0,.26-.66A3.21,3.21,0,0,0,11.54,5.5Z" fill="#333"/></svg>