<svg id="Layer_1" data-name="Layer 1" xmlns="http://www.w3.org/2000/svg" viewBox="0 0 24 24"><circle cx="12" cy="12" r="12" fill="#938cb6"/><path d="M14.73,8.77a7.08,7.08,0,0,0-2.24-4.56.68.68,0,0,0-1,0A7.08,7.08,0,0,0,9.27,8.77c0,.11,0,.23,0,.34a2.72,2.72,0,0,0,5.44,0C14.73,9,14.73,8.88,14.73,8.77Z" fill="#fff"/><path d="M9.09,13.27a7,7,0,0,0-4.81-1.64.67.67,0,0,0-.69.69,7.07,7.07,0,0,0,1.64,4.81,2.73,2.73,0,0,0,.25.23,2.72,2.72,0,0,0,3.84-3.84A2.73,2.73,0,0,0,9.09,13.27Z" fill="#fff"/><path d="M19.72,11.63a7,7,0,0,0-4.81,1.64,2.73,2.73,0,0,0-.23.25,2.72,2.72,0,0,0,3.84,3.84,2.73,2.73,0,0,0,.25-.23,7.07,7.07,0,0,0,1.64-4.81A.67.67,0,0,0,19.72,11.63Z" fill="#fff"/><path d="M15.22,9.15c0-.12,0-.25,0-.38a7.44,7.44,0,0,0-2.39-4.91,1.2,1.2,0,0,0-1.68,0A7.44,7.44,0,0,0,8.77,8.77c0,.13,0,.26,0,.38a3.22,3.22,0,0,0,6.44,0ZM12,11.31A2.22,2.22,0,0,1,9.78,9.07c0-.1,0-.2,0-.3a6.49,6.49,0,0,1,2.1-4.21.17.17,0,0,1,.26,0,6.49,6.49,0,0,1,2.1,4.21c0,.1,0,.2,0,.3A2.22,2.22,0,0,1,12,11.31Z" fill="#333"/><path d="M9.44,12.91a7.44,7.44,0,0,0-5.16-1.78h0a1.19,1.19,0,0,0-.85.34,1.2,1.2,0,0,0-.34.85,7.49,7.49,0,0,0,1.78,5.16l.28.26a3.47,3.47,0,0,0,2.27.9A3.22,3.22,0,0,0,9.7,13.19ZM9,17A2.22,2.22,0,0,1,5.8,17l-.22-.2a6.59,6.59,0,0,1-1.49-4.46.17.17,0,0,1,.19-.19h0a6.68,6.68,0,0,1,4.46,1.49l.2.22A2.22,2.22,0,0,1,9,17Z" fill="#333"/><path d="M20.57,11.47a1.19,1.19,0,0,0-.85-.34h0a7.44,7.44,0,0,0-5.16,1.78l-.26.28a3.22,3.22,0,0,0,2.28,5.45,3.47,3.47,0,0,0,2.27-.9l.28-.26a7.49,7.49,0,0,0,1.78-5.16A1.2,1.2,0,0,0,20.57,11.47Zm-2.15,5.31-.22.2a2.22,2.22,0,1,1-3.14-3.14l.2-.22a6.68,6.68,0,0,1,4.46-1.49h0a.17.17,0,0,1,.19.19A6.59,6.59,0,0,1,18.42,16.78Z" fill="#333"/></svg>