<svg id="Layer_1" data-name="Layer 1" xmlns="http://www.w3.org/2000/svg" viewBox="0 0 24 24"><circle cx="12" cy="12" r="12" fill="#2cb742"/><path d="M15,12a3.6,3.6,0,0,0-.72-2.19,1,1,0,0,1,0-1.23A3.65,3.65,0,0,0,15,6.28a3.22,3.22,0,0,0-2.88-3.2A3.17,3.17,0,0,0,9,6.44a3.58,3.58,0,0,0,.5,1.85,1.88,1.88,0,0,1,0,1.89,3.69,3.69,0,0,0,0,3.71,1.92,1.92,0,0,1,0,1.91,3.69,3.69,0,0,0-.49,2A3.23,3.23,0,0,0,11.88,21,3.18,3.18,0,0,0,15,17.64a3.6,3.6,0,0,0-.72-2.19,1,1,0,0,1,0-1.23A3.57,3.57,0,0,0,15,12Z" fill="#fff"/><path d="M14.67,14.53a4.15,4.15,0,0,0,0-5,.56.56,0,0,1,0-.63,4.09,4.09,0,0,0,.82-2.66,3.72,3.72,0,0,0-3.36-3.68,3.27,3.27,0,0,0-2.43.94A4,4,0,0,0,8.5,6.44a4.17,4.17,0,0,0,.57,2.11,1.36,1.36,0,0,1,0,1.38A4.12,4.12,0,0,0,8.5,12a4.17,4.17,0,0,0,.57,2.11,1.38,1.38,0,0,1,0,1.39,4.18,4.18,0,0,0-.56,2.28,3.73,3.73,0,0,0,3.36,3.68H12a3.31,3.31,0,0,0,2.29-.94,4.14,4.14,0,0,0,.38-5.41A.58.58,0,0,1,14.67,14.53Zm-.79,1.23a3.1,3.1,0,0,1,.62,1.88,3,3,0,0,1-.9,2.19,2.29,2.29,0,0,1-1.7.67,2.75,2.75,0,0,1-2.4-2.72,3.2,3.2,0,0,1,.42-1.73,2.37,2.37,0,0,0,0-2.41A3.17,3.17,0,0,1,9.5,12a3.12,3.12,0,0,1,.43-1.6,2.39,2.39,0,0,0,0-2.4,3.17,3.17,0,0,1-.43-1.6,3.06,3.06,0,0,1,.9-2.2A2.33,2.33,0,0,1,12,3.57h.1A2.74,2.74,0,0,1,14.5,6.3a3.09,3.09,0,0,1-.62,2,1.55,1.55,0,0,0,0,1.84,3.18,3.18,0,0,1,0,3.77A1.53,1.53,0,0,0,13.88,15.76Z" fill="#333"/><path d="M12,8.42A2,2,0,0,0,14,6.3,2,2,0,0,0,12,4.18,2,2,0,0,0,10.05,6.3,2,2,0,0,0,12,8.42Zm0-3.24A1.05,1.05,0,0,1,13,6.3,1,1,0,0,1,12,7.42a1,1,0,0,1-.95-1.12A1.05,1.05,0,0,1,12,5.18Z" fill="#333"/><path d="M12,9.92A2,2,0,0,0,10.05,12,2,2,0,0,0,12,14.16,2,2,0,0,0,14,12,2,2,0,0,0,12,9.92Zm0,3.24A1.05,1.05,0,0,1,11.05,12,1,1,0,0,1,12,10.92,1,1,0,0,1,13,12,1.05,1.05,0,0,1,12,13.16Z" fill="#333"/><path d="M12,15.65a2.13,2.13,0,0,0,0,4.24,2.13,2.13,0,0,0,0-4.24Zm0,3.24a1.14,1.14,0,0,1,0-2.24,1.14,1.14,0,0,1,0,2.24Z" fill="#333"/></svg>