<svg id="Layer_1" data-name="Layer 1" xmlns="http://www.w3.org/2000/svg" viewBox="0 0 24 24"><circle cx="12" cy="12" r="12" fill="#00b9d5"/><path d="M18.49,17.68l-2.44-4.26A12.7,12.7,0,0,1,14.33,7V5.79H14a1,1,0,0,0,0-1.93H10.79a1,1,0,0,0-1,1h0a1,1,0,0,0,1,1h-.32V7a12.7,12.7,0,0,1-1.72,6.39L6.31,17.68a1.36,1.36,0,0,0,1.17,2h9.84A1.36,1.36,0,0,0,18.49,17.68Z" fill="#fff"/><path d="M18.93,17.43l-2.45-4.26A12.26,12.26,0,0,1,14.83,7V6A1.47,1.47,0,0,0,14,3.36H10.79A1.47,1.47,0,0,0,10,6V7a12.26,12.26,0,0,1-1.65,6.14L5.87,17.43a1.85,1.85,0,0,0,0,1.86,1.82,1.82,0,0,0,1.6.93h9.84a1.82,1.82,0,0,0,1.6-.93A1.85,1.85,0,0,0,18.93,17.43ZM11,6.29h2.86V7a13.46,13.46,0,0,0,.34,3H10.63A13.46,13.46,0,0,0,11,7Zm-.18-1.93H14a.47.47,0,0,1,0,.93H10.79a.47.47,0,0,1,0-.93Zm7.27,14.43a.86.86,0,0,1-.75.43H7.49a.86.86,0,0,1-.75-.43.88.88,0,0,1,0-.86l2.44-4.26A12.71,12.71,0,0,0,10.36,11a.35.35,0,0,0,.14,0h3.94a13.78,13.78,0,0,0,1.17,2.67l2.45,4.26A.88.88,0,0,1,18.06,18.79Z" fill="#333"/><path d="M14.16,15.31a1.38,1.38,0,1,0,1.38,1.37A1.37,1.37,0,0,0,14.16,15.31Zm0,1.75a.38.38,0,1,1,.38-.38A.38.38,0,0,1,14.16,17.06Z" fill="#333"/><path d="M13.56,14.42a1,1,0,0,0,0-2,1,1,0,1,0,0,2Z" fill="#333"/><path d="M11.82,14.43a.92.92,0,1,0,.92.92A.92.92,0,0,0,11.82,14.43Zm-.08.92a.07.07,0,0,1,.08-.08.08.08,0,0,1,.08.08C11.9,15.44,11.74,15.44,11.74,15.35Z" fill="#333"/></svg>